<svg height="512pt" viewBox="0 -10 512 511" width="512pt" xmlns="http://www.w3.org/2000/svg"><path d="m245 .5c-19.605469 0-38.671875 2.316406-56.945312 6.667969l-142.46875 380.683593c26.644531 37.261719 63.472656 66.738282 106.414062 84.371094h.003906l151.109375 11.324219c107.253907-26.09375 186.886719-122.761719 186.886719-238.046875 0-135.308594-109.691406-245-245-245zm0 0" fill="#f9ce00"/><path d="m245 490.5c20.085938 0 39.597656-2.433594 58.277344-6.992188-.257813-.40625-.542969-.796874-.863282-1.175781-8.695312-10.234375-14.074218-15.925781-15.304687-29.855469l-4.105469-64.800781c-14.519531 0-105.386718 0-120 0l-4.105468 64.800781c-.773438 8.757813-3.1875 14.257813-7.035157 19.679688 28.714844 11.8125 60.160157 18.34375 93.136719 18.34375zm0 0" fill="#b7dbf6"/><path d="m185.0625 425.835938h75.046875c11.351563 0 21.285156 6.363281 26.316406 15.800781l-3.421875-53.960938c-14.515625 0-105.386718 0-120 0l-3.316406 52.332031c5.265625-8.535156 14.691406-14.171874 25.375-14.171874zm0 0" fill="#97cbef"/><path d="m472.28125 6.675781h-282.042969c-24.894531 5.683594-48.34375 15.171875-69.710937 27.800781l-114.164063 266.636719c2.269531 9.753907 5.105469 19.292969 8.496094 28.5625h477.144531v-303.273437c0-10.851563-8.875-19.726563-19.722656-19.726563zm0 0" fill="#122894"/><path d="m62.503906 169.992188-56.140625 131.121093c2.269531 9.753907 5.105469 19.292969 8.496094 28.5625h47.644531zm0 0" fill="#012481"/><path d="m46.902344 389.675781h425.378906c10.847656 0 19.722656-8.875 19.722656-19.726562v-40.273438h-477.144531c7.898437 21.582031 18.734375 41.75 32.042969 60zm0 0" fill="#e8f3fc"/><path d="m61.503906 369.949219v-40.273438h-46.644531c7.898437 21.582031 18.734375 41.75 32.042969 60h34.324218c-10.847656 0-19.722656-8.875-19.722656-19.726562zm0 0" fill="#b7dbf6"/><path d="m6.714844 302.628906h456.75c.851562 0 1.539062-.691406 1.539062-1.539062v-226.707032l-461.898437 210.105469c.976562 6.125 2.183593 12.175781 3.609375 18.140625zm0 0" fill="#e8f3fc"/><path d="m62.503906 257.46875-59.402344 27.019531c.980469 6.128907 2.1875 12.175781 3.613282 18.140625h55.789062zm0 0" fill="#b7dbf6"/><path d="m236.503906 359.675781c0 7.457031-6.042968 13.5-13.5 13.5-7.457031 0-13.5-6.042969-13.5-13.5s6.042969-13.5 13.5-13.5c7.457032 0 13.5 6.042969 13.5 13.5zm0 0" fill="#b7dbf6"/><path d="m0 245.5c0 13.558594 1.117188 26.851562 3.238281 39.808594l461.765625-210.042969v-14.84375h-380.507812c-51.757813 44.917969-84.496094 111.167969-84.496094 185.078125zm0 0" fill="#406bcc"/><path d="m62.503906 82.082031c-38.855468 43.351563-62.503906 100.613281-62.503906 163.417969 0 13.558594 1.117188 26.851562 3.238281 39.808594l59.265625-26.957032zm0 0" fill="#284cb2"/><path d="m463.464844 33.675781h-341.597656c-14.183594 8.261719-27.464844 17.902344-39.652344 28.746094h382.789062v-27.207031c0-.851563-.6875-1.539063-1.539062-1.539063zm0 0" fill="#1d3ba8"/><path d="m374.359375 192.28125h-302.710937c-5.601563 0-10.144532 4.539062-10.144532 10.144531v100.203125h323v-100.203125c0-5.605469-4.542968-10.144531-10.144531-10.144531zm0 0" fill="#55f3ff"/><path d="m116.4375 192.28125h-44.789062c-5.601563 0-10.144532 4.539062-10.144532 10.144531v100.203125h44.789063v-100.203125c0-5.605469 4.542969-10.144531 10.144531-10.144531zm0 0" fill="#05b8e2"/><path d="m485.238281 481.960938h-106.542969c-10.023437 0-18.222656-8.203126-18.222656-18.222657v-235.125c0-10.019531 8.199219-18.21875 18.222656-18.21875h106.542969c10.023438 0 18.222657 8.199219 18.222657 18.21875v235.125c0 10.019531-8.199219 18.222657-18.222657 18.222657zm0 0" fill="#e8f3fc"/><path d="m388.363281 463.738281v-235.125c0-10.019531 8.199219-18.222656 18.222657-18.222656h-27.894532c-10.019531 0-18.21875 8.203125-18.21875 18.222656v235.125c0 10.019531 8.199219 18.21875 18.21875 18.21875h27.894532c-10.023438.003907-18.222657-8.199219-18.222657-18.21875zm0 0" fill="#b7dbf6"/><path d="m503.460938 355.15625v-126.542969c0-10.019531-8.203126-18.222656-18.222657-18.222656h-106.542969c-10.023437 0-18.222656 8.203125-18.222656 18.222656v191.582031zm0 0" fill="#406bcc"/><path d="m360.472656 228.613281v191.582031l27.890625-12.6875v-178.894531c0-10.019531 8.199219-18.222656 18.222657-18.222656h-27.894532c-10.019531.003906-18.21875 8.203125-18.21875 18.222656zm0 0" fill="#284cb2"/><path d="m485.238281 201.851562h-106.546875c-14.753906 0-26.761718 12.007813-26.761718 26.761719v235.125c0 14.757813 12.007812 26.761719 26.761718 26.761719h106.546875c14.757813 0 26.761719-12.007812 26.761719-26.761719v-235.125c0-14.753906-12.003906-26.761719-26.761719-26.761719zm9.679688 261.886719c0 5.347657-4.332031 9.679688-9.679688 9.679688h-106.546875c-5.34375 0-9.679687-4.332031-9.679687-9.679688v-235.125c0-5.34375 4.335937-9.679687 9.679687-9.679687h14.589844c2.054688 0 3.835938 1.273437 4.664062 3.148437 1.769532 4 5.777344 6.796875 10.421876 6.796875h46.515624c4.644532 0 8.652344-2.796875 10.421876-6.796875.828124-1.875 2.613281-3.148437 4.664062-3.148437h15.269531c5.347657 0 9.683594 4.335937 9.683594 9.679687v235.125zm0 0" fill="#1d3ba8"/><path d="m103.789062 80.589844h-28.785156c-7.425781 0-13.5 6.074218-13.5 13.5 0 7.425781 6.074219 13.5 13.5 13.5h28.785156c7.425782 0 13.5-6.074219 13.5-13.5 0-7.425782-6.074218-13.5-13.5-13.5zm0 0" fill="#fce275"/><path d="m89.394531 94.089844c0-7.425782 6.078125-13.5 13.5-13.5h-27.890625c-7.425781 0-13.5 6.074218-13.5 13.5 0 7.425781 6.074219 13.5 13.5 13.5h27.890625c-7.421875 0-13.5-6.074219-13.5-13.5zm0 0" fill="#f9ce00"/><path d="m145.773438 137.257812h-77.332032c-4.140625 0-7.5-3.359374-7.5-7.5 0-4.144531 3.359375-7.5 7.5-7.5h77.332032c4.144531 0 7.5 3.355469 7.5 7.5 0 4.140626-3.355469 7.5-7.5 7.5zm0 0" fill="#5488e2"/><path d="m145.773438 166.921875h-77.332032c-4.140625 0-7.5-3.355469-7.5-7.5 0-4.140625 3.359375-7.5 7.5-7.5h77.332032c4.144531 0 7.5 3.359375 7.5 7.5 0 4.144531-3.355469 7.5-7.5 7.5zm0 0" fill="#5488e2"/><path d="m446.359375 244.84375h-28.785156c-7.425781 0-13.5 6.074219-13.5 13.5s6.074219 13.5 13.5 13.5h28.785156c7.421875 0 13.5-6.074219 13.5-13.5s-6.078125-13.5-13.5-13.5zm0 0" fill="#fce275"/><path d="m429.324219 258.34375c0-7.425781 6.074219-13.5 13.5-13.5h-25.25c-7.425781 0-13.5 6.074219-13.5 13.5s6.074219 13.5 13.5 13.5h25.25c-7.425781 0-13.5-6.074219-13.5-13.5zm0 0" fill="#f9ce00"/><path d="m470.632812 301.507812h-77.332031c-4.144531 0-7.5-3.355468-7.5-7.5 0-4.140624 3.355469-7.5 7.5-7.5h77.332031c4.140626 0 7.5 3.359376 7.5 7.5 0 4.144532-3.359374 7.5-7.5 7.5zm0 0" fill="#5488e2"/><path d="m470.632812 331.175781h-77.332031c-4.144531 0-7.5-3.355469-7.5-7.5s3.355469-7.5 7.5-7.5h77.332031c4.140626 0 7.5 3.355469 7.5 7.5s-3.359374 7.5-7.5 7.5zm0 0" fill="#5488e2"/><path d="m328.015625 279.964844c0-4.144532-3.359375-7.5-7.5-7.5h-31.167969c-4.144531 0-7.5 3.355468-7.5 7.5 0 4.140625 3.355469 7.5 7.5 7.5h31.167969c4.140625 0 7.5-3.359375 7.5-7.5zm0 0" fill="#284cb2"/><path d="m469.3125 346.175781h-72.6875c-4.5625 0-8.261719 3.699219-8.261719 8.261719v91.363281c0 4.5625 3.699219 8.261719 8.261719 8.261719h72.6875c4.558594 0 8.257812-3.699219 8.257812-8.261719v-91.363281c0-4.5625-3.699218-8.261719-8.257812-8.261719zm0 0" fill="#55f3ff"/><path d="m410.445312 445.800781v-91.363281c0-4.5625 3.699219-8.261719 8.257813-8.261719h-22.078125c-4.5625 0-8.261719 3.699219-8.261719 8.261719v91.363281c0 4.5625 3.699219 8.261719 8.261719 8.261719h22.078125c-4.558594 0-8.257813-3.699219-8.257813-8.261719zm0 0" fill="#05b8e2"/><path d="m455.050781 431.5625c0-4.144531-3.359375-7.5-7.5-7.5h-31.167969c-4.144531 0-7.5 3.355469-7.5 7.5 0 4.140625 3.355469 7.5 7.5 7.5h31.167969c4.140625 0 7.5-3.359375 7.5-7.5zm0 0" fill="#284cb2"/><path d="m387.042969 481.960938c0-3.46875 1.628906-6.550782 4.15625-8.542969h-12.507813c-5.34375 0-9.679687-4.332031-9.679687-9.679688v-235.125c0-5.34375 4.335937-9.679687 9.679687-9.679687h12.398438c-1.972656-1.96875-3.195313-4.691406-3.195313-7.695313 0-4.007812 2.175781-7.5 5.402344-9.386719h-14.601563c-14.757812 0-26.761718 12.007813-26.761718 26.761719v235.125c0 14.757813 12.003906 26.761719 26.761718 26.761719h12.507813c-2.53125-1.992188-4.160156-5.074219-4.160156-8.539062zm0 0" fill="#012481"/></svg>