<svg height="512pt" viewBox="-11 0 512 512" width="512pt" xmlns="http://www.w3.org/2000/svg"><path d="m424.335938 433.898438c40.734374-43.746094 65.664062-102.40625 65.664062-166.898438 0-135.308594-109.691406-245-245-245s-245 109.691406-245 245c0 64.492188 24.929688 123.152344 65.664062 166.898438zm0 0" fill="#c1d629"/><path d="m371.003906 97.394531v-24.066406c0-10.003906-8.109375-18.109375-18.113281-18.109375s-18.113281 8.105469-18.113281 18.109375v24.066406zm0 0" fill="#5488e2"/><path d="m352.890625 87.644531c-8.25 0-15.28125-5.140625-18.113281-12.386719v22.136719h36.226562v-22.136719c-2.832031 7.246094-9.863281 12.386719-18.113281 12.386719zm0 0" fill="#406bcc"/><path d="m301.425781 0h-104.539062v297.449219h118.519531v-283.46875c0-7.722657-6.261719-13.980469-13.980469-13.980469zm-46.414062 59.4375c-8.167969 0-14.792969-6.621094-14.792969-14.792969s6.625-14.796875 14.792969-14.796875c8.171875 0 14.796875 6.625 14.796875 14.796875s-6.625 14.792969-14.796875 14.792969zm0 0" fill="#05b8e2"/><path d="m315.40625 153.003906c-30.074219 54.246094-91.195312 39.800782-110.3125 33.511719-2.703125-.886719-5.621094-.796875-8.203125.253906v110.679688h118.515625zm0 0" fill="#07a3d3"/><path d="m199.078125 0h-22.386719c-7.71875 0-13.976562 6.257812-13.976562 13.980469v283.46875h36.363281zm0 0" fill="#06daf7"/><path d="m199.078125 186.128906c-1.519531.289063-2.984375.863282-4.292969 1.761719-13.855468 9.488281-24.5-3.613281-24.5-3.613281l-7.570312.113281v113.058594h36.363281zm0 0" fill="#05b8e2"/><path d="m152.738281 40.257812c-5.863281 2.105469-12.191406 3.292969-18.820312 3.292969-6.625 0-12.953125-1.1875-18.820313-3.292969l-17.546875 47.558594v25.136719h72.734375v-25.136719zm0 0" fill="#fcecac"/><path d="m133.921875 97.089844s-9.847656-7.40625-2.828125-53.621094c-5.601562-.285156-10.96875-1.40625-15.992188-3.210938l-17.546874 47.558594v25.136719h32.121093zm0 0" fill="#fce275"/><path d="m133.921875 44.644531c6.757813 0 13.214844-1.226562 19.175781-3.414062l-13.835937-37.507813c-1.832031-4.964844-8.851563-4.964844-10.683594 0l-13.839844 37.507813c5.964844 2.1875 12.421875 3.414062 19.183594 3.414062zm0 0" fill="#284cb2"/><path d="m128.578125 3.722656-13.839844 37.507813c5.082031 1.863281 10.515625 3.019531 16.191407 3.324219 1.652343-11.152344 4.296874-24.605469 8.332031-40.832032-1.832031-4.964844-8.851563-4.964844-10.683594 0zm0 0" fill="#1d3ba8"/><path d="m152.101562 106c-5.855468 0-11.054687-2.78125-14.378906-7.085938-.902344-1.171874-2.324218-1.824218-3.804687-1.824218v200.359375h36.367187v-209.628907c0 10.039063-8.140625 18.179688-18.183594 18.179688zm0 0" fill="#f9ce00"/><path d="m152.101562 202.460938c-10.039062 0-18.183593-8.140626-18.183593-18.183594v113.171875h36.367187v-113.171875c0 10.042968-8.140625 18.183594-18.183594 18.183594zm0 0" fill="#f4b500"/><path d="m133.921875 97.089844c-1.480469 0-2.902344.652344-3.808594 1.824218-3.320312 4.304688-8.519531 7.085938-14.378906 7.085938-10.039063 0-18.183594-8.140625-18.183594-18.183594v209.632813h36.367188v-200.359375zm0 0" fill="#f4b500"/><path d="m115.734375 202.460938c-10.039063 0-18.183594-8.140626-18.183594-18.183594v113.171875h36.367188v-113.171875c.003906 10.042968-8.140625 18.183594-18.183594 18.183594zm0 0" fill="#f29b00"/><path d="m372.980469 95.203125h-40.179688c-9.605469 0-17.394531 7.789063-17.394531 17.398437v184.847657h74.96875v-184.847657c0-9.609374-7.789062-17.398437-17.394531-17.398437zm0 0" fill="#284cb2"/><path d="m361.589844 95.203125h-28.789063c-9.605469 0-17.394531 7.789063-17.394531 17.398437v184.847657h37.484375v-184.847657c0-9.609374 3.894531-17.398437 8.699219-17.398437zm0 0" fill="#1d3ba8"/><path d="m392.035156 297.449219h-137.023437v-86.96875c0-16.734375 13.566406-30.296875 30.296875-30.296875h76.433594c16.730468 0 30.292968 13.5625 30.292968 30.296875zm0 0" fill="#d6eafc"/><path d="m315.566406 234.316406v-24.839844c0-14.054687 9.578125-25.875 22.5625-29.292968h-52.820312c-16.730469 0-30.296875 13.5625-30.296875 30.292968v23.839844zm0 0" fill="#b7dbf6"/><path d="m390.375 232.328125h-133.699219c-5.019531 0-9.085937 4.070313-9.085937 9.085937v56.035157h151.871094v-56.035157c0-5.015624-4.066407-9.085937-9.085938-9.085937zm0 0" fill="#f95d95"/><path d="m317.226562 232.328125h-60.554687c-5.015625 0-9.085937 4.070313-9.085937 9.085937v56.035157h60.554687v-56.035157c0-5.015624 4.070313-9.085937 9.085937-9.085937zm0 0" fill="#e5387f"/><path d="m147.109375 319.800781h-82.375v113.097657c22.917969 24.890624 50.929687 45.007812 82.375 58.734374zm0 0" fill="#1d3ba8"/><path d="m147.109375 319.800781h-82.375v113.097657c22.917969 24.890624 50.929687 45.007812 82.375 58.734374zm0 0" fill="#1d3ba8"/><path d="m100.953125 357.675781h.765625c15.089844 0 28.320312 7.929688 35.769531 19.851563 1.949219 3.117187 6.402344 3.117187 8.351563 0 .402344-.648438.832031-1.277344 1.269531-1.898438v-55.828125h-82.375v58.457031c7.359375-12.324218 20.820313-20.582031 36.21875-20.582031zm0 0" fill="#122894"/><path d="m342.890625 319.800781v171.832031c31.445313-13.726562 59.457031-33.84375 82.375-58.734374v-113.097657zm0 0" fill="#1d3ba8"/><path d="m344.160156 377.527344c1.949219 3.117187 6.402344 3.117187 8.351563 0 7.449219-11.921875 20.679687-19.851563 35.769531-19.851563h.765625c15.398437 0 28.859375 8.257813 36.21875 20.582031v-58.457031h-82.375v55.828125c.4375.621094.867187 1.25 1.269531 1.898438zm0 0" fill="#122894"/><path d="m142.8125 489.722656c31.105469 14.292969 65.710938 22.277344 102.1875 22.277344s71.082031-7.984375 102.1875-22.277344v-169.921875h-204.375zm0 0" fill="#284cb2"/><path d="m142.8125 489.722656c31.105469 14.292969 65.710938 22.277344 102.1875 22.277344s71.082031-7.984375 102.1875-22.277344v-169.921875h-204.375zm0 0" fill="#284cb2"/><path d="m145.839844 377.527344c7.445312-11.921875 20.675781-19.851563 35.765625-19.851563h126.789062c15.089844 0 28.320313 7.929688 35.765625 19.851563.738282 1.183594 1.839844 1.914062 3.027344 2.199218v-59.925781h-204.375v59.925781c1.1875-.285156 2.289062-1.015624 3.027344-2.199218zm0 0" fill="#1d3ba8"/><path d="m289.019531 387.316406c0-8.171875-6.621093-14.796875-14.792969-14.796875h-58.453124c-8.171876 0-14.792969 6.625-14.792969 14.796875 0 8.167969 6.621093 14.792969 14.792969 14.792969h58.453124c8.171876 0 14.792969-6.621094 14.792969-14.792969zm0 0" fill="#5488e2"/><path d="m242.644531 387.316406c0-8.171875 6.625-14.796875 14.796875-14.796875h-41.667968c-8.171876 0-14.792969 6.625-14.792969 14.796875 0 8.167969 6.621093 14.792969 14.792969 14.792969h41.667968c-8.171875 0-14.796875-6.621094-14.796875-14.792969zm0 0" fill="#406bcc"/><path d="m428.820312 324.847656h-367.640624c-8.167969 0-14.792969-6.625-14.792969-14.796875 0-8.167969 6.625-14.792969 14.792969-14.792969h367.636718c8.171875 0 14.796875 6.625 14.796875 14.792969 0 8.171875-6.625 14.796875-14.792969 14.796875zm0 0" fill="#5488e2"/><path d="m129.71875 310.050781c0-8.167969 6.625-14.792969 14.796875-14.792969h-83.335937c-8.167969 0-14.792969 6.625-14.792969 14.792969 0 8.171875 6.625 14.796875 14.792969 14.796875h83.335937c-8.171875 0-14.796875-6.625-14.796875-14.796875zm0 0" fill="#406bcc"/><path d="m390.375 137.441406h-74.96875c-4.539062 0-8.21875-3.679687-8.21875-8.21875 0-4.539062 3.679688-8.21875 8.21875-8.21875h74.96875c4.539062 0 8.21875 3.679688 8.21875 8.21875 0 4.539063-3.679688 8.21875-8.21875 8.21875zm0 0" fill="#5488e2"/><path d="m344.671875 129.222656c0-4.539062 3.679687-8.21875 8.21875-8.21875h-37.484375c-4.539062 0-8.21875 3.679688-8.21875 8.21875 0 4.539063 3.679688 8.21875 8.21875 8.21875h37.484375c-4.539063 0-8.21875-3.679687-8.21875-8.21875zm0 0" fill="#406bcc"/></svg>