<svg height="512pt" viewBox="0 -11 512 512" width="512pt" xmlns="http://www.w3.org/2000/svg"><path d="m245 0c-57.304688 0-110.011719 19.679688-151.742188 52.644531l-80.613281 270.234375c32.542969 97.128906 124.273438 167.121094 232.355469 167.121094 135.308594 0 245-109.691406 245-245s-109.691406-245-245-245zm0 0" fill="#06daf7"/><path d="m245 490c21.460938 0 42.273438-2.769531 62.109375-7.949219-1.5-3.210937-2.503906-6.851562-2.953125-11.484375l-4.164062-59.847656c-14.726563 0-106.902344 0-121.726563 0l-4.167969 59.847656c-.3125 3.25-.898437 6.015625-1.738281 8.484375 22.953125 7.113281 47.351563 10.949219 72.640625 10.949219zm0 0" fill="#b7dbf6"/><path d="m197.203125 446.996094h83.75c9.574219 0 17.992187 5.21875 22.472656 13.039062l-3.433593-49.316406c-14.726563 0-106.902344 0-121.726563 0l-3.417969 49.113281c4.507813-7.707031 12.863282-12.835937 22.355469-12.835937zm0 0" fill="#97cbef"/><path d="m491.992188 24.238281h-353.363282c-16.199218 7.816407-31.398437 17.371094-45.371094 28.410157l-80.601562 270.199218c3.34375 9.976563 7.289062 19.679688 11.835938 29.039063h487.507812v-307.640625c0-11.003906-9.003906-20.007813-20.007812-20.007813zm0 0" fill="#122894"/><path d="m68.824219 134.554688-56.167969 188.292968c3.34375 9.976563 7.289062 19.675782 11.835938 29.035156h44.332031zm0 0" fill="#012481"/><path d="m66.453125 412.746094h425.539063c11.003906 0 20.007812-9.003906 20.007812-20.007813v-40.855469h-487.507812c10.882812 22.414063 25.085937 42.90625 41.960937 60.863282zm0 0" fill="#e8f3fc"/><path d="m68.824219 392.738281v-40.855469h-44.332031c10.882812 22.414063 25.085937 42.90625 41.960937 60.863282h22.378906c-11.003906 0-20.007812-9.003906-20.007812-20.007813zm0 0" fill="#b7dbf6"/><path d="m483.050781 51.625h-388.488281c-57.546875 44.832031-94.5625 114.777344-94.5625 193.375 0 27.808594 4.640625 54.53125 13.179688 79.445312h469.871093c.863281 0 1.5625-.695312 1.5625-1.558593v-269.703125c-.003906-.859375-.699219-1.558594-1.5625-1.558594zm0 0" fill="#e8f3fc"/><path d="m68.824219 74.765625c-42.601563 44.078125-68.824219 104.089844-68.824219 170.234375 0 27.808594 4.640625 54.53125 13.179688 79.449219h55.644531zm0 0" fill="#b7dbf6"/><path d="m252.824219 382.316406c0 7.5625-6.132813 13.695313-13.695313 13.695313s-13.695312-6.132813-13.695312-13.695313 6.132812-13.695312 13.695312-13.695312 13.695313 6.132812 13.695313 13.695312zm0 0" fill="#b7dbf6"/><path d="m18.589844 151.257812h256.871094v-73.5625h-209.421876c-19.929687 21.3125-36.097656 46.183594-47.449218 73.5625zm0 0" fill="#f9ce00"/><path d="m68.824219 77.695312h-2.785157c-19.929687 21.3125-36.097656 46.183594-47.449218 73.5625h50.234375zm0 0" fill="#f4b500"/><path d="m0 245c0 21.84375 2.875 43.015625 8.238281 63.171875 7.613281-5.273437 19.449219-9.796875 37.714844-9.796875h229.507813v-73.558594h-274.628907c-.542969 6.65625-.832031 13.386719-.832031 20.183594zm0 0" fill="#06daf7"/><path d="m68.824219 224.816406h-67.992188c-.542969 6.65625-.832031 13.386719-.832031 20.183594 0 21.84375 2.875 43.015625 8.238281 63.171875 7.613281-5.273437 19.453125-9.796875 37.714844-9.796875h22.871094zm0 0" fill="#05b8e2"/><path d="m19.832031 148.3125c-11.34375 26.382812-18.183593 55.152344-19.5625 85.351562 6.890625-3.628906 19.910157-7.597656 43.941407-7.597656h231.25c0-24.160156 0-53.375 0-76.039062h-231.25c-9.878907.003906-17.882813-.671875-24.378907-1.714844zm0 0" fill="#ef4a8a"/><path d="m68.824219 150.027344h-24.613281c-9.878907 0-17.882813-.671875-24.378907-1.714844-11.34375 26.382812-18.1875 55.152344-19.5625 85.351562 6.890625-3.628906 19.910157-7.597656 43.941407-7.597656h24.613281zm0 0" fill="#e5387f"/><path d="m259.566406 313.867188c-4.203125 0-7.605468-3.40625-7.605468-7.609376v-242.929687c0-12.523437 10.1875-22.714844 22.714843-22.714844h38.085938c12.523437 0 22.714843 10.1875 22.714843 22.714844v104.414063c0 7.007812 5.703126 12.710937 12.710938 12.710937h32.597656c4.203125 0 7.609375 3.40625 7.609375 7.609375 0 4.199219-3.40625 7.605469-7.609375 7.605469h-32.597656c-15.398438 0-27.925781-12.527344-27.925781-27.925781v-104.414063c0-4.136719-3.363281-7.5-7.5-7.5h-38.085938c-4.136719 0-7.5 3.363281-7.5 7.5v242.929687c0 4.203126-3.40625 7.609376-7.609375 7.609376zm0 0" fill="#b7dbf6"/><path d="m380.785156 180.453125h-32.597656c-7.007812 0-12.710938-5.703125-12.710938-12.710937v-39.910157c-1.460937 2.691407-4.3125 4.519531-7.59375 4.519531-3.300781 0-6.164062-1.851562-7.621093-4.574218v39.964844c0 15.398437 12.527343 27.925781 27.929687 27.925781h32.597656c4.199219 0 7.605469-3.40625 7.605469-7.605469 0-4.203125-3.40625-7.609375-7.609375-7.609375zm0 0" fill="#97cbef"/><path d="m280.476562 301.1875h-41.816406c-11.46875 0-20.851562-9.382812-20.851562-20.851562v-185.464844c0-11.46875 9.382812-20.851563 20.851562-20.851563h41.816406c11.464844 0 20.847657 9.382813 20.847657 20.851563v185.464844c0 11.46875-9.382813 20.851562-20.847657 20.851562zm0 0" fill="#284cb2"/><path d="m256 285.824219v-196.445313c0-8.449218 6.910156-15.359375 15.359375-15.359375h-32.699219c-11.46875 0-20.851562 9.382813-20.851562 20.851563v185.464844c0 11.46875 9.382812 20.851562 20.851562 20.851562h32.699219c-8.445313 0-15.359375-6.914062-15.359375-15.363281zm0 0" fill="#122894"/><path d="m308.664062 146.757812v-40.980468c0-6.023438-4.882812-10.910156-10.910156-10.910156h-76.375c-6.023437 0-10.910156 4.886718-10.910156 10.910156v40.980468zm0 0" fill="#f4b500"/><path d="m255.082031 94.867188h-33.699219c-6.027343 0-10.910156 4.886718-10.910156 10.910156v40.980468h37.910156v-40.976562c0-6.027344 3-10.914062 6.699219-10.914062zm0 0" fill="#f29b00"/><path d="m210.472656 228.089844v41.335937c0 6.023438 4.882813 10.910157 10.910156 10.910157h76.371094c6.027344 0 10.910156-4.886719 10.910156-10.910157v-41.335937zm0 0" fill="#05b8e2"/><path d="m248.382812 269.425781v-41.335937h-37.914062v41.335937c0 6.023438 4.886719 10.910157 10.910156 10.910157h33.699219c-3.695313 0-6.695313-4.886719-6.695313-10.910157zm0 0" fill="#07a3d3"/><path d="m502.929688 178.976562h-11.777344c1.546875 2.671876 2.445312 5.761719 2.445312 9.070313s-.898437 6.402344-2.445312 9.070313h11.777344c5.011718 0 9.070312-4.058594 9.070312-9.070313 0-5.007813-4.058594-9.070313-9.070312-9.070313zm0 0" fill="#05b8e2"/><path d="m479.386719 169.90625h-88.066407c-10.019531 0-18.140624 8.125-18.140624 18.140625 0 10.019531 8.121093 18.140625 18.140624 18.140625h88.066407c10.019531 0 18.140625-8.121094 18.140625-18.140625 0-10.015625-8.121094-18.140625-18.140625-18.140625zm0 0" fill="#06daf7"/><path d="m427.828125 188.046875c0-10.015625 8.121094-18.140625 18.140625-18.140625h-54.648438c-10.019531 0-18.140624 8.125-18.140624 18.140625 0 10.019531 8.121093 18.140625 18.140624 18.140625h54.648438c-10.019531 0-18.140625-8.121094-18.140625-18.140625zm0 0" fill="#05b8e2"/><path d="m210.472656 144.621094h98.191406v85.601562h-98.191406zm0 0" fill="#e5387f"/><path d="m210.472656 144.621094h37.910156v85.601562h-37.910156zm0 0" fill="#d32976"/></svg>