<?xml version="1.0" encoding="utf-8"?>
<!-- Generator: Adobe Illustrator 23.0.3, SVG Export Plug-In . SVG Version: 6.00 Build 0)  -->
<svg version="1.1" id="Livello_1" xmlns="http://www.w3.org/2000/svg" xmlns:xlink="http://www.w3.org/1999/xlink" x="0px" y="0px"
	 viewBox="0 0 512 512" style="enable-background:new 0 0 512 512;" xml:space="preserve">
<style type="text/css">
	.st0{fill:#1D3BA8;}
	.st1{fill:#EF6E60;}
	.st2{fill:#F7C01E;}
	.st3{fill:#E2B932;}
	.st4{fill:#E5523D;}
	.st5{fill:#F7E69E;}
	.st6{fill:#FFFFFF;}
	.st7{fill:#6F39CF;}
	.st8{fill:#6627C3;}
	.st9{fill:#F5EBF2;}
	.st10{fill:none;}
	.st11{fill:#E8F3FC;}
	.st12{fill:#B7DBF6;}
	.st13{fill:#97CBEF;}
	.st14{fill:#7F49E9;}
	.st15{fill:#60B4E2;}
	.st16{fill:#936AEE;}
</style>
<path class="st0" d="M245,22C109.7,22,0,131.7,0,267c0,33.3,6.6,65,18.6,93.9l42,67.5C105.6,479.6,171.5,512,245,512
	c135.3,0,245-109.7,245-245S380.3,22,245,22z"/>
<path class="st1" d="M422.4,409L256,30c-17.6-40-74.5-40.1-92.1,0L18.6,360.9c10.3,24.8,24.6,47.6,42,67.5l46.9-106.9
	c0.9-2.1,2.9-3.4,5.2-3.4h194.4c2.2,0,4.3,1.3,5.2,3.4l50,113.9c7.2,16.4,26.4,24.1,43,16.9c5.7-5,11.2-10.2,16.5-15.7
	C425.9,428.2,426.4,418.2,422.4,409z M273.4,252.5H146.5c-4.1,0-6.8-4.2-5.2-7.9L204.8,100c2-4.5,8.4-4.5,10.3,0l63.5,144.5
	C280.2,248.3,277.5,252.5,273.4,252.5z"/>
<path class="st2" d="M511.9,426.1c-1.1-13.4-1.5-27.9-1.5-42.7V277c0-57-21.2-116.4-108.2-116.4c-27.8,0-54.6,6-76.2,15.9
	c-9.9,4.5-20.7,13.2-17.2,27.1c4.2,12.4,19,18,29.2,12.2c16.8-9.6,35.8-16.9,56.5-16.9c58.2,0,59.2,42.3,59.2,65.9
	c0,3.2-2.6,5.9-5.8,5.9c-106.3,0.8-159.8,38.3-159.8,105.8c0,41.2,29.4,81.7,87,81.7c36,0,64.2-15.8,81.1-34.9
	c2.9-3.3,8.3-1.6,8.8,2.7l0.6,5.2c1.4,12.3,12.2,21.4,24.7,20.5C503.4,450.7,513,439.1,511.9,426.1z M455,355.8
	c0,26.1-19.4,61.9-66.3,61.9c-26.5,0-48.8-16.9-48.8-47.2c0-53.4,54.3-64.5,109.2-64.2c3.2,0,5.9,2.7,5.9,5.9V355.8z"/>
<path class="st3" d="M338.1,215.7c16.8-9.6,35.8-16.9,56.5-16.9c3.6,0,7,0.2,10.2,0.5c-6.1-3.9-10.2-10.8-10.2-18.6
	c0-8.9,5.2-16.5,12.7-20c-1.7,0-3.4-0.1-5.1-0.1c-27.8,0-54.6,6-76.2,15.9c-9.9,4.5-20.7,13.2-17.2,27.1
	C313.1,216,327.9,221.6,338.1,215.7z"/>
<path class="st3" d="M419.1,421.4c0-4.2,1.3-8.2,3.4-11.5c-9.1,4.8-20.3,7.8-33.8,7.8c-26.5,0-48.8-16.9-48.8-47.2
	c0-38.9,28.8-55.4,65.7-61.3c-6.6-3.8-11.1-10.9-11.1-19.1c0-6.6,2.9-12.5,7.4-16.5c-75.7,10.2-113.8,45.8-113.8,102.8
	c0,41.2,29.4,81.7,87,81.7c23.4,0,43.5-6.7,59.3-16.6C425.6,439.2,419.1,431.1,419.1,421.4z"/>
<path class="st4" d="M200.1,252.5h-53.6c-4.1,0-6.8-4.2-5.2-7.9L204.8,100c1.2-2.7,3.9-3.7,6.3-3.3c-3-5.5-4.7-11.8-4.7-18.5
	c0-28.7,30.1-47.2,55.6-34.7L256,30c-17.6-40-74.5-40.1-92.1,0L18.6,360.9c10.3,24.8,24.6,47.6,42,67.5l46.9-106.9
	c0.9-2.1,2.9-3.4,5.2-3.4H203C178,304,176.5,268.7,200.1,252.5z"/>
<g>
	<path class="st5" d="M232.6,174.4H131.4c-3.1,0-5.6,2.5-5.6,5.6s2.5,5.6,5.6,5.6h101.2V174.4z"/>
	<path class="st6" d="M232.6,174.4H131.4c-3.1,0-5.6,2.5-5.6,5.6s2.5,5.6,5.6,5.6h101.2V174.4z"/>
	<path class="st7" d="M234.3,419.8h-23.6c5.4,16.4,8.4,33.4,8.9,50.6l0.5,40.3c8.1,1.3,17,1.3,25.4,1.3c8.4,0,16.3,0,24.4-1.3
		l0.6-40.3c0.5-17.2,3.5-34.3,8.9-50.6H234.3z"/>
	<path class="st8" d="M243.6,478.6c0.9-1.4,1.4-3,1.4-4.6v-27.8c0-1.4-0.3-2.7-1-3.9c-8-15.2,7.2-21.4,7.2-21.4l0-1.1h-40.6
		c5.4,16.4,8.4,33.4,8.9,50.6l0.5,40.3c7.8,1.2,16.8,1.2,25,1.3C240.5,505.6,241.9,481.4,243.6,478.6z"/>
	<path class="st9" d="M110.5,303h21.6v21.6h-21.6V303z"/>
	<path class="st9" d="M357.9,303h21.6v21.6h-21.6V303z"/>
	<path class="st6" d="M232.6,175c-64.8,6.2-115.8,60.4-116.9,126.5H127c1.1-59.9,47.1-109,105.7-115.2V175z"/>
	<path class="st6" d="M175.9,194.5c4.8,0.3,7.8,5.3,5.8,9.6c15-9.6,32.3-15.9,50.9-17.8V175C211.9,177,192.6,183.9,175.9,194.5z"/>
	<path class="st6" d="M257.4,175v11.3c58.6,6.1,104.5,55.2,105.7,115.2h11.3C373.1,235.4,322.1,181.2,257.4,175z"/>
	<path class="st10" d="M360,244.7c-0.5,4.8-5.8,7.6-10,5.1c8,15.5,12.7,33.1,13,51.7h11.3C373.9,281.1,368.8,261.8,360,244.7z"/>
	<path class="st6" d="M173.6,174.4c3.1,0,5.6,2.5,5.6,5.6s-2.5,5.6-5.6,5.6h59.1v-11.3H173.6z"/>
	<path class="st6" d="M358.6,174.4H257.4v11.3h101.2c3.1,0,5.6-2.5,5.6-5.6S361.7,174.4,358.6,174.4z"/>
	<path class="st11" d="M300.5,324.2c-11.3-14.3-37.8-51-42.7-87.5c-0.9-6.5-6.3-11.3-12.8-11.3s-11.9,4.9-12.8,11.3
		c-4.9,36.6-31.4,73.3-42.7,87.5c-3.1,4-4,9.3-2.1,14l16.9,44h81.5l16.9-44C304.4,333.5,303.6,328.1,300.5,324.2z"/>
	<path class="st12" d="M251.6,359.2l-25.4-43.9c-18.8-3.5-15.7-21.6-15.7-21.6c-7.8,13.3-15.9,24.2-21,30.5c-3.1,4-4,9.3-2.1,14
		l16.9,44h45.6C241.2,370.9,251.6,359.2,251.6,359.2z"/>
	<path class="st13" d="M245,318.7c-3.1,0-5.6-2.5-5.6-5.6v-83.2c0-3.1,2.5-5.6,5.6-5.6s5.6,2.5,5.6,5.6V313
		C250.6,316.2,248.1,318.7,245,318.7z"/>
	<path class="st6" d="M377.1,331.8h-16.9c-5.3,0-9.5-4.3-9.5-9.5v-16.9c0-5.3,4.3-9.5,9.5-9.5h16.9c5.3,0,9.5,4.3,9.5,9.5v16.9
		C386.7,327.5,382.4,331.8,377.1,331.8z M362,320.6h13.5v-13.5H362V320.6z M377.1,307.1L377.1,307.1L377.1,307.1z"/>
	<path class="st6" d="M129.8,331.8h-16.9c-5.3,0-9.5-4.3-9.5-9.5v-16.9c0-5.3,4.3-9.5,9.5-9.5h16.9c5.3,0,9.5,4.3,9.5,9.5v16.9
		C139.3,327.5,135,331.8,129.8,331.8z M114.6,320.6H128v-13.5h-13.5V320.6z M129.8,307.1L129.8,307.1L129.8,307.1z"/>
	<path class="st6" d="M121.3,167.7c-6.8,0-12.4,5.5-12.4,12.4s5.5,12.4,12.4,12.4h0c6.8,0,12.4-5.5,12.4-12.4
		S128.1,167.7,121.3,167.7z"/>
	<path class="st12" d="M267.8,320.5c-7.3-12.6-23.4-16.9-36-9.6c-12.6,7.3-16.9,23.4-9.6,36c7.3,12.6,23.4,16.9,36,9.6
		C270.7,349.2,275.1,333.1,267.8,320.5z"/>
	<path class="st14" d="M245,476.8c-4.1,0-7.5-3.4-7.5-7.5v-17.8c0-4.1,3.4-7.5,7.5-7.5s7.5,3.4,7.5,7.5v17.8
		C252.5,473.4,249.1,476.8,245,476.8z"/>
	<path class="st13" d="M249.3,341.1l-8.6-14.8c-4.7,2.7-10.8,1.1-13.5-3.6c-1.4-2.3-1.6-5-1-7.4c-8.1,8.2-10.1,21.1-4,31.6
		c6.1,10.5,18.2,15.2,29.4,12.3c-2.4-0.7-4.6-2.2-5.9-4.6C242.9,349.9,244.6,343.8,249.3,341.1z"/>
	<path class="st15" d="M253.5,328.7c-2.7-4.7-8.8-6.3-13.5-3.6c-4.7,2.7-6.3,8.8-3.6,13.5c2.7,4.7,8.8,6.3,13.5,3.6
		C254.7,339.5,256.3,333.5,253.5,328.7z"/>
	<path class="st9" d="M234.2,169.3h21.6v21.6h-21.6V169.3z"/>
	<path class="st6" d="M253.4,198h-16.9c-5.3,0-9.5-4.3-9.5-9.5v-16.9c0-5.3,4.3-9.5,9.5-9.5h16.9c5.3,0,9.5,4.3,9.5,9.5v16.9
		C263,193.8,258.7,198,253.4,198z M238.3,186.8h13.5v-13.4h-13.5V186.8z M253.4,173.3L253.4,173.3L253.4,173.3z"/>
	<path class="st6" d="M305.2,174.4c3.1,0,5.6,2.5,5.6,5.6s-2.5,5.6-5.6,5.6h59.1v-11.3H305.2z"/>
	<path class="st6" d="M368.7,167.7c-6.8,0-12.4,5.5-12.4,12.4s5.5,12.4,12.4,12.4h0c6.8,0,12.4-5.5,12.4-12.4
		S375.5,167.7,368.7,167.7z"/>
	<path class="st14" d="M199.1,399l6,17.3c1,2.8,3.6,4.6,6.5,4.6h66.8c2.9,0,5.5-1.9,6.5-4.6l6-17.3H199.1z"/>
	<path class="st7" d="M248,416.3l-3-17.3h-45.9l6,17.3c1,2.8,3.6,4.6,6.5,4.6h39.6C249.8,420.9,248.5,419,248,416.3z"/>
	<path class="st16" d="M290.2,401.1h-90.3c-5.5,0-9.9-4.4-9.9-9.9c0-5.4,4.4-9.9,9.9-9.9h90.3c5.5,0,9.9,4.4,9.9,9.9
		C300,396.7,295.6,401.1,290.2,401.1z"/>
	<path class="st14" d="M235.8,391.3c0-5.5,4.4-9.9,9.9-9.9h-45.9c-5.5,0-9.9,4.4-9.9,9.9c0,5.5,4.4,9.9,9.9,9.9h45.9
		C240.3,401.1,235.8,396.7,235.8,391.3z"/>
</g>
</svg>
