<?xml version="1.0" encoding="utf-8"?>
<!-- Generator: Adobe Illustrator 23.0.3, SVG Export Plug-In . SVG Version: 6.00 Build 0)  -->
<svg version="1.1" id="Capa_1" xmlns="http://www.w3.org/2000/svg" xmlns:xlink="http://www.w3.org/1999/xlink" x="0px" y="0px"
	 viewBox="0 0 512 512" style="enable-background:new 0 0 512 512;" xml:space="preserve">
<style type="text/css">
	.st0{fill:#67C600;}
	.st1{fill:#000E00;}
</style>
<g>
	<g id="XMLID_1_">
		<g>
			<polygon class="st0" points="441.6,226.2 389,352 362.6,352 341,296.8 319.7,352 293.3,352 241,226.2 271.2,226.2 308.6,321.8 
				324,281 301.9,226.5 327.8,226.5 341,265.1 354.5,226.5 380.4,226.5 358.6,281 373.7,321.8 411.1,226.2 			"/>
			<path class="st0" d="M232.3,266.6c0,41.4-24.6,85.4-84,85.4H86.4V181.6h61.9C198.3,181.6,232.3,214.8,232.3,266.6z M148.3,323
				c30.4,0,50.6-24.2,50.6-56.4c0-34.3-20.5-55.9-50.6-55.9h-28.8V323H148.3z"/>
			<path class="st0" d="M482,30v452H30V30H482z M452,452V60H60v392H452z"/>
			<path class="st1" d="M512,0v512H0V0H512z M482,482V30H30v452H482z"/>
			<path class="st1" d="M452,60v392H60V60H452z M389,352l52.6-125.8h-30.5l-37.4,95.5L358.6,281l21.8-54.5h-25.9L341,265.1
				l-13.2-38.6h-25.9L324,281l-15.4,40.8l-37.4-95.5H241L293.3,352h26.4l21.4-55.2l21.6,55.2H389z M148.3,352c59.4,0,84-44,84-85.4
				c0-51.8-34.1-85-84-85H86.4V352H148.3z"/>
			<path class="st1" d="M199,266.6c0,32.2-20.2,56.4-50.6,56.4h-28.8V210.6h28.8C178.5,210.6,199,232.3,199,266.6z"/>
		</g>
		<g>
		</g>
	</g>
</g>
</svg>
