<svg xmlns="http://www.w3.org/2000/svg" viewBox="0 0 564.82781 508.59831"><defs><style>.cls-1{fill:#60bbf2;opacity:0.42;}.cls-2,.cls-7{fill:#cce3eb;}.cls-2{opacity:0.43;}.cls-3{fill:#a8c4cc;}.cls-4{fill:#84aeb8;}.cls-5{fill:#66b6ee;}.cls-14,.cls-15,.cls-6{fill:#33648a;}.cls-6{opacity:0.25;}.cls-8{fill:#f0bd75;}.cls-16,.cls-9{fill:#1e394c;}.cls-10{fill:#0e2a3e;}.cls-11,.cls-13{fill:#e89049;}.cls-12{fill:#7fa7b0;}.cls-13{opacity:0.67;}.cls-14{opacity:0.29;}.cls-16{opacity:0.48;}.cls-17{fill:#3e8aca;}.cls-18{fill:#2273a8;}.cls-19{fill:#1a3651;}.cls-20{fill:#fff;}</style></defs><title>Risorsa 1</title><g id="Livello_2" data-name="Livello 2"><g id="Livello_1-2" data-name="Livello 1"><path class="cls-1" d="M128.1588,496.67172H436.6694c68.76077-47.40023,113.71648-125.56933,113.71648-214.04663C550.38588,138.01257,430.41061,0,282.414,0,134.41719,0,14.44192,138.01257,14.44192,282.62509,14.44192,371.10239,59.398,449.27149,128.1588,496.67172Z"/><path class="cls-2" d="M564.82781,497.46478c0-6.149-126.44083-11.13373-282.41381-11.13373S0,491.31574,0,497.46478c0,6.14865,126.441,11.13353,282.414,11.13353S564.82781,503.61343,564.82781,497.46478Z"/><rect class="cls-3" x="177.41236" y="363.52236" width="12.84759" height="122.86385"/><rect class="cls-4" x="177.41236" y="363.52236" width="12.84759" height="17.2724"/><path class="cls-3" d="M128.35865,486.42847H243.35182a3.8053,3.8053,0,0,1,3.8053,3.8053v7.46967a0,0,0,0,1,0,0H124.55345a0,0,0,0,1,0,0v-7.46977A3.8052,3.8052,0,0,1,128.35865,486.42847Z"/><path class="cls-3" d="M153.37763,363.64482h89.03464c-32.39684-11.63453-19.86423-121.23763-13.8756-162.7846a13.88637,13.88637,0,0,0-13.75508-15.85941l-59.30411-.00039a24.29579,24.29579,0,0,0-24.07974,20.96832c-5.20359,37.74874-13.40414,116.02719,2.8387,146.33108A21.68156,21.68156,0,0,0,153.37763,363.64482Z"/><path class="cls-5" d="M110.69234,245.43134c0-11.74447-8.29445-23.514-18.52616-23.514-10.23191,0-18.52616,11.76951-18.52616,23.514,0,11.74486,8.29425,21.26567,18.52616,21.26567C102.39789,266.697,110.69234,257.1762,110.69234,245.43134Z"/><path class="cls-6" d="M92.16618,221.91736a13.68594,13.68594,0,0,0-4.75522.894c7.923,2.92262,13.77054,12.76582,13.77054,22.62,0,9.85435-5.84759,18.11886-13.77054,20.53208a16.27115,16.27115,0,0,0,4.75522.73359c10.23171,0,18.52616-9.52081,18.52616-21.26567C110.69234,233.68687,102.39789,221.91736,92.16618,221.91736Z"/><path class="cls-7" d="M71.05251,259.32688l3.31973,30.05994a7.41638,7.41638,0,0,0,7.3715,6.60211h19.16193a7.41622,7.41622,0,0,0,7.37149-6.60211l3.32-30.05994a2.76221,2.76221,0,0,0-2.74559-3.06542H73.79789A2.76193,2.76193,0,0,0,71.05251,259.32688Z"/><path class="cls-3" d="M73.7975,260.75278h35.054a2.71658,2.71658,0,0,1,2.4181,1.54054l.32749-2.96644a2.76232,2.76232,0,0,0-2.74559-3.06542H73.7975a2.76208,2.76208,0,0,0-2.745,3.06542l.32767,2.96644A2.71563,2.71563,0,0,1,73.7975,260.75278Z"/><path class="cls-3" d="M108.85152,256.26146H96.6978a2.76238,2.76238,0,0,1,2.74539,3.06542l-3.32013,30.05994a7.41585,7.41585,0,0,1-7.3711,6.60211h12.15371a7.41622,7.41622,0,0,0,7.37149-6.60211l3.32-30.05994A2.76221,2.76221,0,0,0,108.85152,256.26146Z"/><polygon class="cls-8" points="262.37 468.251 261.112 476.938 267.722 485.397 284.488 477.189 286.304 469.244 265.435 466.089 262.37 468.251"/><path class="cls-9" d="M275.90151,496.20887l1.73086-2.14306a.80693.80693,0,0,1,1.24182-.01643l1.73794,2.03782a3.62445,3.62445,0,0,0,2.8209,1.27253l38.953-.663a2.09133,2.09133,0,0,0,.0669-2.94473c-5.70849-5.7617-36.4359-15.72326-37.9649-16.56287-1.52938-.83962-10.92656,6.46184-23.37586-.25118a131.876,131.876,0,0,0-2.30914,16.06971,4.44777,4.44777,0,0,0,4.49817,4.69477l9.88526-.168A3.56863,3.56863,0,0,0,275.90151,496.20887Z"/><path class="cls-9" d="M190.88262,321.44427s-16.17358,17.87865,13.44385,37.30917c20.77838,13.632,37.15267,9.46722,50.19413,17.73017,3.059,1.938,5.38317,4.82134,5.59894,8.43608l.66239,83.58671,1.57614.78249a28.71773,28.71773,0,0,0,24.97685.27231h0l11.79454-95.37069c.42236-6.57374-3.13-12.11694-7.20091-17.29549-22.64638-28.80834-62.74651-38.57-72.89665-40.23453C205.83728,314.4967,190.88262,321.44427,190.88262,321.44427Z"/><polygon class="cls-8" points="197.959 468.241 196.583 476.911 203.077 485.459 219.953 477.482 221.878 469.562 201.054 466.122 197.959 468.241"/><path class="cls-9" d="M211.10718,496.382l1.76023-2.11919a.80693.80693,0,0,1,1.242.00058l1.70975,2.06129a3.62785,3.62785,0,0,0,2.8031,1.31127l38.95886-.13029a2.09207,2.09207,0,0,0,.1072-2.94374c-5.62944-5.83918-36.21759-16.22015-37.73484-17.08031-1.51785-.86035-11.014,6.31181-23.37039-.57083a131.88653,131.88653,0,0,0-2.52883,16.03626,4.44791,4.44791,0,0,0,4.43381,4.756l9.88683-.03287A3.56727,3.56727,0,0,0,211.10718,496.382Z"/><path class="cls-9" d="M141.71631,305.855s-19.5972,21.84256,8.73929,46.51385c19.88046,17.3086,37.72,9.90737,50.23971,20.46264,2.9365,2.476,4.96512,5.83956,4.67325,9.66929L196.41975,467.524l.67451.43781a26.93551,26.93551,0,0,0,26.12968,1.78155h0L245.38145,380.149c1.38755-6.84761-1.55032-13.18309-5.085-19.20967-19.66469-33.5258-50.54077-53.50838-60.96888-56.71485C165.77138,300.05692,141.71631,305.855,141.71631,305.855Z"/><path class="cls-10" d="M249.83443,374.08917a38.89113,38.89113,0,0,0-4.56508-1.58514,38.99429,38.99429,0,0,0-4.97745-11.57134,153.4486,153.4486,0,0,0-33.668-39.46964c7.10134-1.20465,10.71549-2.7264,12.68111-4.72372a133.49238,133.49238,0,0,1,21.27233,5.76992C250.21492,338.61417,250.18323,364.76868,249.83443,374.08917Z"/><path class="cls-7" d="M194.48151,190.26211s-28.26489-3.7685-40.01132,18.25522c-11.74642,22.02332-29.28742,108.36089-13.94914,110.98655,6.79109,1.1622,24.90016,5.72,44.96707,4.25189,27.58919-2.01884,33.5876-4.55784,35.57592-9.80486l17.57641-80.45849a34.02315,34.02315,0,0,0-13.34252-28.40555C211.21321,194.41285,194.48151,190.26211,194.48151,190.26211Z"/><path class="cls-3" d="M238.5309,226.41905s.36679,48.45444,15.6004,51.391c15.234,2.93671,55.79581,2.01884,55.79581,2.01884v15.4173h-86.997Z"/><path class="cls-11" d="M217.46652,204.43818l3.42754-17.138-22.22737-16.93006L194.408,190.57217S201.41892,221.42028,217.46652,204.43818Z"/><path class="cls-9" d="M245.82219,154.63824s-11.62925,5.65861-28.6673-4.72392c0,0-3.95121,7.10446-15.3682,13.44893,0,0-5.93268-9.94649-9.34806-2.49283a15.74716,15.74716,0,0,0-1.57029,6.08233c-10.69416-13.81006-3.15345-32.00776,6.81769-41.81673,9.44764-9.31071,29.90109-5.60873,42.67688-.4736,13.56084,5.45907,16.05348-4.03826,16.05348-4.03826C273.5544,144.76687,245.82219,154.63824,245.82219,154.63824Z"/><path class="cls-8" d="M201.78258,163.359s-5.93346-9.94532-9.34807-2.493c-4.14214,9.04056.53231,14.71032,6.141,14.71032,0,0,4.45337,23.5128,26.05767,21.851s24.72021-36.35335,21.189-42.79309c0,0-11.63336,5.661-28.6673-4.72588C217.15489,149.90825,213.20779,157.02289,201.78258,163.359Z"/><path class="cls-7" d="M389.03678,218.35485H298.85911a9.35258,9.35258,0,0,0-9.1636,7.483l-12.00524,58.84266H386.95866l11.24191-55.10331A9.35259,9.35259,0,0,0,389.03678,218.35485Z"/><path class="cls-12" d="M235.40258,284.687h153.384a2.2753,2.2753,0,0,1,2.2753,2.2753v5.793a2.2753,2.2753,0,0,1-2.2753,2.2753H235.40268a2.2755,2.2755,0,0,1-2.2755-2.2755v-5.79271A2.2754,2.2754,0,0,1,235.40258,284.687Z"/><path class="cls-3" d="M386.61045,284.68657H276.49425a4.45172,4.45172,0,0,1,4.4514,4.45142v1.44155a4.45139,4.45139,0,0,1-4.4514,4.451h110.1162a4.4514,4.4514,0,0,0,4.45142-4.451V289.138A4.45173,4.45173,0,0,0,386.61045,284.68657Z"/><path class="cls-7" d="M242.38488,281.53155c-17.55682-2.04486-66.80982-7.06965-75.25059-7.94311-10.64526-1.10136,12.48079-44.04919,15.05031-58.73232,2.56933-14.68293-8.62642-15.23361-8.62642-15.23361-6.31943-.78993-13.21477,0-19.088,8.89482-12.02088,18.20514-25.41054,71.4238-18.3536,84.56287a4.75481,4.75481,0,0,0,4.19846,2.487H242.38488Z"/><path class="cls-3" d="M242.38488,281.53194s-63.41242-4.36456-77.08613-6.19971c-10.60652-1.42375,11.50209-45.426,14.07141-60.10892,2.56952-14.68293-8.80972-14.07122-8.80972-14.07122a27.24461,27.24461,0,0,0-9.9013.93c4.24328-2.78979,8.69215-2.98072,12.90648-2.46682,0,0,11.18831.55792,8.619,15.24085-2.56952,14.68313-22.39188,56.71368-15.69274,58.36533C174.73212,275.2532,224.82393,279.49119,242.38488,281.53194Z"/><path class="cls-8" d="M242.38488,295.79683h23.65385a2.23427,2.23427,0,0,0,1.87564-3.45374c-2.21485-3.40386-5.71417-8.21151-8.27665-9.02706-1.52938-.48652-13.03128-.05693-17.25284.39007Z"/><path class="cls-13" d="M245.82219,154.63413a18.87926,18.87926,0,0,1-5.35716,1.3367c-.287,1.6-.80265,4.67756-1.08043,7.59431-.39633,4.16092,1.68414,17.04.39633,17.139a37.55906,37.55906,0,0,1-3.96294-.099s-1.98128,18.62534-20.60662,15.65323c-.17645-.02856-.31593-.047-.4828-.07277a23.54234,23.54234,0,0,0,9.90463,1.24162C246.23749,195.7654,249.35341,161.07387,245.82219,154.63413Z"/><path class="cls-5" d="M516.9663,425.26318s29.70938-14.73576,21.62836-37.07716c-8.081-22.341-13.07217-23.29195,2.37683-35.88855,15.44863-12.597,37.78981-44.20745,9.50692-46.58428-28.28308-2.37663-26.85718,35.17589-50.387,40.40452C476.56178,351.34674,463.72749,449.74353,516.9663,425.26318Z"/><path class="cls-6" d="M493.58381,427.47744c5.70593,2.64542,13.37675,2.38681,23.38249-2.21426,0,0,29.70938-14.73576,21.62836-37.07716s-13.07217-23.29214,2.37683-35.88855c15.44863-12.597,37.78981-44.20745,9.50692-46.58428a25.99957,25.99957,0,0,0-7.53953.404c7.95895,3.30663,15.87763,9.86551,5.64374,22.00337-17.04,20.21029-26.1545,27.34351-24.17323,40.42076C526.34177,381.2938,525.24356,410.24514,493.58381,427.47744Z"/><path class="cls-5" d="M466.57969,424.55032s-26.14414-.95073-24.718-19.72728c1.4259-18.776,2.15225-19.51152-14.26039-25.43109-28.99633-10.45727-6.04086-66.15,17.58775-31.1349,16.39953,24.30215,23.52963,18.83544,34.22477,20.73691C490.10931,370.89542,513.40145,432.86864,466.57969,424.55032Z"/><path class="cls-14" d="M479.41378,368.994c-10.69514-1.90147-17.82524,3.56485-34.225-20.7373-12.3677-18.32779-24.53611-11.79259-29.18156.08823,6.95812-2.13054,17.52611-3.4109,18.84285,7.91161,1.708,14.69056,36.07576,38.81117,35.37347,68.79658.45737.0489.89772.08118,1.33983.11483,4.99994-13.18661,11.60049-30.29136,17.24951-44.86475C485.79072,374.02012,482.183,369.486,479.41378,368.994Z"/><path class="cls-15" d="M472.64033,423.71834s-32.44246-31.7294-21.3907-37.07716c11.05176-5.34757,32.79906,12.12143,20.67763-6.77367-12.12144-18.89491-26.23569-48.3269-9.47973-43.69237,16.75615,4.63471,17.97019,9.72641,15.897-12.27989-2.682-28.46561,13.19071-43.13759,28.16417-33.86835s-12.83451,72.015-2.4956,65.24151c10.33872-6.77387,18.8953-12.47787,21.03425-4.2783,2.139,8.19977-29.6,40.39436-17.82562,34.938,14.617-6.77348,16.756,5.34757,12.12143,12.83448C514.70861,406.24933,495.45688,450.8132,472.64033,423.71834Z"/><path class="cls-16" d="M519.34313,398.76261c4.63452-7.48691,2.49557-19.608-12.12143-12.83448-11.7744,5.45634,19.96457-26.73825,17.82562-34.938s-10.69514-2.49557-21.03425,4.2783c-10.33852,6.77347,17.46921-55.97227,2.4956-65.24151-6.96345-4.311-14.09784-3.3884-19.49391,1.6364,7.75118,1.89579,13.95734,8.13051,9.655,24.96511-9.11431,35.66534-14.66239,65.38626,1.98147,56.6681,15.67768-8.21209-18.20807,29.6323-18.553,56.907C499.55285,441.32056,515.22371,405.417,519.34313,398.76261Z"/><path class="cls-7" d="M450.17624,427.43929l6.27835,56.8471a14.02443,14.02443,0,0,0,13.93976,12.4849h36.23757a14.02473,14.02473,0,0,0,13.93992-12.4849l6.27835-56.8471a5.22339,5.22339,0,0,0-5.19166-5.79652H455.3679A5.22319,5.22319,0,0,0,450.17624,427.43929Z"/><path class="cls-3" d="M521.65853,421.64277H498.67431a5.22341,5.22341,0,0,1,5.19166,5.79652l-6.27835,56.8471a14.02458,14.02458,0,0,1-13.94,12.48471h22.98426a14.02457,14.02457,0,0,0,13.93992-12.48471l6.27835-56.8471A5.22339,5.22339,0,0,0,521.65853,421.64277Z"/><path class="cls-17" d="M58.77917,295.61313H455.0455a4.0371,4.0371,0,0,1,4.0371,4.0371v10.27991a4.0368,4.0368,0,0,1-4.0368,4.0368H58.77917a4.0368,4.0368,0,0,1-4.0368-4.0368V299.64993A4.0368,4.0368,0,0,1,58.77917,295.61313Z"/><path class="cls-18" d="M451.18566,295.61313H62.6399a7.89727,7.89727,0,0,0-7.89753,7.89714V306.07a7.81642,7.81642,0,0,0,.40866,2.39091,7.87061,7.87061,0,0,1,7.48887-5.50642H451.18566a7.87086,7.87086,0,0,1,7.48848,5.50642,7.8163,7.8163,0,0,0,.40846-2.39091v-2.55974A7.897,7.897,0,0,0,451.18566,295.61313Z"/><polygon class="cls-15" points="185.448 497.047 172.461 497.047 82.117 314.059 95.103 314.059 185.448 497.047"/><polygon class="cls-15" points="42.472 497.047 55.459 497.047 145.803 314.059 132.817 314.059 42.472 497.047"/><polygon class="cls-15" points="465.16 497.047 452.174 497.047 361.829 314.059 374.816 314.059 465.16 497.047"/><polygon class="cls-15" points="322.185 497.047 335.171 497.047 425.516 314.059 412.529 314.059 322.185 497.047"/><polygon class="cls-19" points="98.682 321.309 95.103 314.059 82.117 314.059 85.696 321.309 98.682 321.309"/><polygon class="cls-19" points="142.224 321.309 145.803 314.059 132.817 314.059 129.238 321.309 142.224 321.309"/><polygon class="cls-19" points="378.395 321.309 374.816 314.059 361.829 314.059 365.409 321.309 378.395 321.309"/><polygon class="cls-19" points="421.937 321.309 425.516 314.059 412.529 314.059 408.95 321.309 421.937 321.309"/><path class="cls-20" d="M207.82781,179.6573a81.34612,81.34612,0,0,1,18.17391,5.73913c4.30435,1.913-1.43478,3.82609-8.6087,5.26087C217.393,190.6573,215.95824,190.179,207.82781,179.6573Z"/></g></g></svg>