<svg xmlns="http://www.w3.org/2000/svg" viewBox="0 0 374.194 352.138"><defs><style>.cls-1,.cls-44{fill:#eba588;}.cls-1{stroke:#eba588;}.cls-1,.cls-42,.cls-47{stroke-miterlimit:10;}.cls-1,.cls-47{stroke-width:0.25px;}.cls-2{fill:#d1f4f5;}.cls-3{fill:#df8d6d;}.cls-4{fill:#8c404c;}.cls-5{fill:#a64f5a;}.cls-6{fill:#f5d896;}.cls-7{fill:#f0bf6c;}.cls-8{fill:#454f6b;}.cls-9{fill:#56438c;}.cls-10{fill:#6c6fc3;}.cls-11{fill:#fff;}.cls-12{fill:#e36b85;}.cls-13{fill:#f0bf9c;}.cls-14{fill:#e68799;}.cls-15{fill:#85c1cd;}.cls-16{fill:#d1faf5;}.cls-17{fill:#93e3ef;}.cls-18{fill:#31203a;}.cls-19{fill:#402c49;}.cls-20{fill:#5d64af;}.cls-21{fill:#0472af;}.cls-22{fill:#0285b2;}.cls-23{fill:#119dce;}.cls-24{fill:#45c7f4;}.cls-25{fill:#27aae1;}.cls-26{fill:#2d4f3c;}.cls-27{fill:#4a705b;}.cls-28{fill:#638674;}.cls-29{fill:#dabe6b;}.cls-30{fill:#b0b369;}.cls-31{fill:#ed682e;}.cls-32{fill:#eba25d;}.cls-33{fill:#efb768;}.cls-34{fill:#a02758;}.cls-35{fill:#c43368;}.cls-36{fill:#d34672;}.cls-37{fill:#e47790;}.cls-38{fill:#dd5b7d;}.cls-39{fill:#f1c59a;}.cls-40{fill:#5195a8;}.cls-41{fill:#6ca8bc;}.cls-42,.cls-43{fill:#222;}.cls-42{stroke:#222;}.cls-45{fill:#231f20;}.cls-46{fill:#3c2415;}.cls-47{fill:#2e3192;stroke:#2e3192;}.cls-48{fill:#2b3990;}.cls-49{fill:#f6dcc5;}.cls-50{fill:#bd6c67;}</style></defs><title>Risorsa 7</title><g id="Livello_2" data-name="Livello 2"><g id="OBJECTS"><ellipse class="cls-1" cx="172.353" cy="136.919" rx="41.541" ry="31.722"/><path class="cls-2" d="M21.245,123.814c-5.675,2.334-9.215,8.229-10.532,14.222s-.8,12.211-.633,18.345c.141,5.248.03,10.591,1.518,15.625s4.924,9.835,9.938,11.392c5.641,1.753,11.936-1.1,15.763-5.6s5.635-10.353,6.957-16.11c1.367-5.951,2.322-12.087,1.652-18.156s-3.111-12.116-7.653-16.2S26.893,121.492,21.245,123.814Z"/><path class="cls-2" d="M91.7,16.287a29.3,29.3,0,0,0-1.72,26.31,29.3,29.3,0,0,0,20.412,16.688c9.878,2.106,20.454-1.25,28.3-7.615,6.9-5.6,11.989-13.688,13-22.519s-2.405-18.283-9.482-23.66c-5.745-4.365-13.289-5.78-20.5-5.444C109.874.6,97.8,6.128,91.7,16.287Z"/><path class="cls-2" d="M76.012,43.2C75,37.726,70.617,33.339,65.6,30.933c-5.362-2.568-12.39-2.971-16.75,1.071a13.655,13.655,0,0,0-3.953,8.686,18.1,18.1,0,0,0,6.647,15.919,16.147,16.147,0,0,0,16.97,1.654A14.59,14.59,0,0,0,76.012,43.2Z"/><path class="cls-2" d="M302.261,30.893a32.99,32.99,0,0,0-15.752,24.386c-1.006,9.982,3.362,20.455,11.459,26.38,6.726,4.921,15.493,6.544,23.776,5.619,8.933-1,17.734-5.015,23.376-12.011,9.154-11.349,7.755-29.534-2.528-39.87S314.743,23.358,302.261,30.893Z"/><path class="cls-2" d="M365.172,241.953c4.822-2.264,7.731-7.464,8.628-12.715s.091-10.626-.715-15.891Q371.2,201,369.309,188.657c-.893-5.837-2.707-12.8-8.362-14.5-3.7-1.116-7.807.7-10.39,3.579s-3.925,6.642-5.012,10.354a111.91,111.91,0,0,0-4.245,23.843c-.524,7.738-.121,15.946,3.972,22.535S358.152,245.249,365.172,241.953Z"/><path class="cls-2" d="M33.029,312.773C19.7,304.407,12.351,285.258,10.9,269.591a52.242,52.242,0,0,1,16.347-42.529C38.183,216.984,53.812,211.2,60.4,197.874c7.1-14.361.85-31.358-4.416-46.487s-8.858-33.757,1.859-45.665C68.458,93.929,86.924,95.379,102.209,91.13c15.093-4.2,27.688-14.423,39.434-24.787S165.077,45.016,179.454,38.8s32.368-6.768,44.621,2.99c16.97,13.514,17,40.746,33.247,55.119,11.257,9.957,27.421,11.294,42.27,13.606s31.271,7.433,37.941,20.9c6.186,12.492,1.6,27.522-4.312,40.145s-13.288,25.493-12.475,39.409c.713,12.192,7.659,23.065,14.942,32.868s15.3,19.509,18.783,31.215,1.177,31.042-9.045,37.726Z"/><rect class="cls-3" y="312.773" width="365.903" height="14.713"/><rect class="cls-4" x="10.159" y="327.486" width="345.585" height="9.563"/><rect class="cls-5" x="10.159" y="337.05" width="345.585" height="15.088"/><polygon class="cls-6" points="65.943 90.288 23.258 119.449 69.782 187.552 120.957 152.592 80.233 92.979 65.943 90.288"/><polygon class="cls-7" points="71.743 98.778 80.233 92.979 65.943 90.288 71.743 98.778"/><path class="cls-8" d="M72.7,172.071,38.738,122.363,71.519,99.969l33.958,49.709Zm-31.577-49.26L73.145,169.69,103.1,149.229,71.07,102.35Z"/><path class="cls-5" d="M81.9,160.7c-10.311,0-21.351-6.063-28.378-16.7-4.464-6.755-6.179-14.685-4.7-21.757A19.57,19.57,0,0,1,57.15,109.6c8.208-5.33,20.241-1.562,26.825,8.4a19,19,0,0,1,3.056,14.158,12.833,12.833,0,0,1-5.465,8.285c-5.392,3.5-13.287,1.051-17.593-5.466a12.469,12.469,0,0,1-2-9.294,8.52,8.52,0,0,1,3.632-5.5c3.591-2.333,8.835-.725,11.685,3.587a8.3,8.3,0,0,1,1.325,6.181,5.759,5.759,0,0,1-2.458,3.714c-2.443,1.586-5.988.516-7.9-2.384a5.617,5.617,0,0,1-.893-4.189,3.991,3.991,0,0,1,1.708-2.573A.857.857,0,0,1,70,125.964a2.283,2.283,0,0,0-.964,1.485,3.9,3.9,0,0,0,.646,2.895c1.4,2.117,3.885,2.965,5.54,1.891a4.005,4.005,0,0,0,1.715-2.627,6.577,6.577,0,0,0-1.078-4.887c-2.333-3.53-6.516-4.917-9.322-3.093a6.727,6.727,0,0,0-2.887,4.41,10.745,10.745,0,0,0,1.753,8c3.79,5.736,10.622,7.966,15.23,4.973a10.987,10.987,0,0,0,4.721-7.2,17.288,17.288,0,0,0-2.809-12.864c-6.067-9.181-17.042-12.731-24.462-7.909A17.64,17.64,0,0,0,50.5,122.592c-1.381,6.628.244,14.087,4.458,20.463,9.625,14.565,27.069,20.172,38.888,12.5a.857.857,0,1,1,.933,1.437A23.412,23.412,0,0,1,81.9,160.7Z"/><path class="cls-9" d="M112.881,76.132c1.021,2.372-1.058,5.547-4.643,7.091s-7.321.873-8.342-1.5,1.057-5.547,4.642-7.091S111.859,73.759,112.881,76.132Z"/><path class="cls-10" d="M94.457,68.2a2.038,2.038,0,0,0-1.066,2.678l4.424,10.273c.585,1.359,4.659.91,9.1-1s7.567-4.563,6.982-5.922l-4.424-10.273A2.038,2.038,0,0,0,106.8,62.89Z"/><path class="cls-7" d="M109.908,26.993A23.774,23.774,0,1,0,84.376,59.881,12.176,12.176,0,0,1,93.655,67.1l1.232,2.861c.469,1.089,3.733.729,7.292-.8s6.063-3.657,5.595-4.746l-1.23-2.856a12.413,12.413,0,0,1,1.24-11.861A23.753,23.753,0,0,0,109.908,26.993Z"/><path class="cls-11" d="M73.327,48.421a1.712,1.712,0,0,1-2.094-.615,20.314,20.314,0,0,1,2.3-25.645,1.714,1.714,0,1,1,2.454,2.393,16.893,16.893,0,0,0-1.92,21.331,1.712,1.712,0,0,1-.458,2.379A1.662,1.662,0,0,1,73.327,48.421Z"/><path class="cls-11" d="M79.48,54.132a1.713,1.713,0,0,1-1.532-.087A20.376,20.376,0,0,1,75,51.988a1.714,1.714,0,0,1,2.2-2.626,16.893,16.893,0,0,0,2.449,1.71,1.713,1.713,0,0,1,.633,2.339A1.694,1.694,0,0,1,79.48,54.132Z"/><path class="cls-12" d="M138.925,18.263a4.973,4.973,0,0,1,1.744-1.049L137.2,15.367a.715.715,0,0,0-.967.967l1.833,3.447a1.865,1.865,0,0,1,.111-.479A2.947,2.947,0,0,1,138.925,18.263Z"/><path class="cls-13" d="M149.414,21.865l-8.745-4.651a4.973,4.973,0,0,0-1.744,1.049,2.947,2.947,0,0,0-.75,1.039,1.865,1.865,0,0,0-.111.479l4.665,8.77Z"/><path class="cls-14" d="M142.729,28.551l38.593,38.594,2.229-2.229L143.64,25.006C142.535,26.5,142.12,27.942,142.729,28.551Z"/><path class="cls-12" d="M144.673,23.81a10.831,10.831,0,0,0-1.033,1.2l39.911,39.91,2.228-2.228-39.91-39.911A10.816,10.816,0,0,0,144.673,23.81Z"/><path class="cls-14" d="M149.414,21.865c-.608-.608-2.055-.193-3.545.912l39.91,39.911,2.229-2.229Z"/><path class="cls-13" d="M188.008,60.459c.772.772-.1,2.895-1.945,4.741s-3.969,2.717-4.741,1.945.1-2.895,1.945-4.741S187.236,59.687,188.008,60.459Z"/><path class="cls-12" d="M185.942,62.526c.294.294-.038,1.1-.743,1.81s-1.515,1.037-1.81.742.038-1.105.742-1.81S185.647,62.231,185.942,62.526Z"/><path class="cls-7" d="M278.393,31.521c-5.654-7.368-14.485-11.931-23.644-13.47s-18.625-.242-27.487,2.536a50.24,50.24,0,0,0-16.423,8.2,27.915,27.915,0,0,0-10.08,15.056c-1.41,5.99-.138,12.731,3.989,17.3,3.882,4.3,9.812,6.275,15.593,6.583s11.526-.873,17.207-1.993a14.267,14.267,0,0,1,4.546-.4,4.887,4.887,0,0,1,3.757,2.31c.841,1.583.408,3.546.92,5.264a6.507,6.507,0,0,0,5.128,4.155,15.67,15.67,0,0,0,6.857-.594c10.175-2.656,20.136-8.869,23.982-18.656C286.135,49.167,284.048,38.888,278.393,31.521Zm-16.309,39.2c-3.984,2.19-8.464,1.692-10.006-1.112s.437-6.854,4.421-9.045,8.464-1.692,10.006,1.112S266.068,68.534,262.084,70.725Z"/><path class="cls-6" d="M278.393,30.28c-5.654-7.367-14.485-11.93-23.644-13.47s-18.625-.242-27.487,2.536a50.262,50.262,0,0,0-16.423,8.2A27.915,27.915,0,0,0,200.759,42.6c-1.41,5.99-.138,12.731,3.989,17.3,3.882,4.294,9.812,6.275,15.593,6.583s11.526-.873,17.207-1.993a14.267,14.267,0,0,1,4.546-.395,4.887,4.887,0,0,1,3.757,2.31c.841,1.583.408,3.546.92,5.264A6.5,6.5,0,0,0,251.9,75.82a15.64,15.64,0,0,0,6.857-.594c10.175-2.655,20.136-8.868,23.982-18.656C286.135,47.927,284.048,37.648,278.393,30.28ZM262.084,69.485c-3.984,2.19-8.464,1.692-10.006-1.113s.437-6.854,4.421-9.044,8.464-1.693,10.006,1.112S266.068,67.294,262.084,69.485Z"/><path class="cls-10" d="M245.45,53.136c-.3-1.693,2.173-2.889,1.975-4.6-.138-1.18-1.492-1.812-2.677-1.9a11.248,11.248,0,0,1-3.529-.311c-1.161-.476-2.1-1.677-3.349-1.571-1.116.095-1.829,1.181-2.521,2.063a10.874,10.874,0,0,1-4.327,3.3,8.393,8.393,0,0,0-2.455,1.23,1.91,1.91,0,0,0-.486,2.46c.628.813,2.01.718,2.606,1.554.528.74.159,1.8.506,2.644a2.319,2.319,0,0,0,2.174,1.234,9.665,9.665,0,0,0,2.584-.54,15.3,15.3,0,0,1,6.127-.4,9.259,9.259,0,0,0,3.358.175,2.275,2.275,0,0,0,1.895-2.4C247.089,54.923,245.654,54.3,245.45,53.136Z"/><path class="cls-12" d="M226.61,45.953a10.6,10.6,0,0,1,2.762-2.2,9.769,9.769,0,0,0,2.729-2.235,3.405,3.405,0,0,0,.578-3.331c-.569-1.278-2.074-1.848-3.462-2.026a15.568,15.568,0,0,1-4.129-.643,26.675,26.675,0,0,1-2.446-1.462,3.138,3.138,0,0,0-2.728-.358c-1.253.56-1.57,2.173-1.624,3.544s-.1,2.936-1.144,3.821-2.6.677-3.838,1.226a3.359,3.359,0,0,0,2.388,6.269c.977-.314,1.8-1.07,2.821-1.2,1.959-.238,3.785,1.935,5.645,1.277C225.325,48.232,225.841,46.918,226.61,45.953Z"/><path class="cls-15" d="M252.367,37.9a5.3,5.3,0,0,0,2.047-1.192,2.814,2.814,0,0,0,.875-2.144,4.152,4.152,0,0,0-1.725-2.624,6.34,6.34,0,0,1-2.1-2.4,7.74,7.74,0,0,1-.22-2.552,3.053,3.053,0,0,0-.849-2.346,2.765,2.765,0,0,0-2.3-.395c-.789.154-1.543.47-2.34.575a10.263,10.263,0,0,1-3.487-.4,6.692,6.692,0,0,0-3.486-.078,2.591,2.591,0,0,0-1.9,2.63c.121.775.706,1.419.816,2.2a3.7,3.7,0,0,1-1.343,2.812,4.182,4.182,0,0,0-1.5,2.76,2.647,2.647,0,0,0,1.82,2.22,6.436,6.436,0,0,0,3.01.174,13.321,13.321,0,0,1,3.031-.2,22.9,22.9,0,0,1,3.779,1.131A9.748,9.748,0,0,0,252.367,37.9Z"/><path class="cls-7" d="M263.235,50.921a2.194,2.194,0,0,0,.362-.006c1.557-.147,2.695-1.32,4.089-1.9a13.019,13.019,0,0,1,4.788-.508c1.615-.029,3.376-.309,4.462-1.506,1.135-1.249,1.163-4.534.074-5.824-.763-.9-2.02-1.208-2.945-1.944a7.683,7.683,0,0,1-1.7-2.209c-.9-1.533-1.7-3.882-3.885-3.737a3.376,3.376,0,0,0-2.463,1.991,9.785,9.785,0,0,1-1.751,2.782,5.9,5.9,0,0,1-3.28,1.179,10.213,10.213,0,0,0-3.438.755,3.313,3.313,0,0,0-1.612,4c.559,1.513,2.859.96,3.835,2.074a6.146,6.146,0,0,1,.8,2.443A3.266,3.266,0,0,0,263.235,50.921Z"/><path class="cls-10" d="M297.835,44.588a4.92,4.92,0,0,1,.329-5.758,8.161,8.161,0,0,1,4.161-2.272,20.839,20.839,0,0,0,4.559-1.505,4.651,4.651,0,0,0,2.625-3.766c.557,3.907-.029,8.123-2.51,11.194a9.484,9.484,0,0,1-4.088,3.094C301.279,46.154,298.8,46.026,297.835,44.588Z"/><path class="cls-11" d="M299.663,42.762h0a1.3,1.3,0,0,0-1.793-.049l-12.49,11.2,3.131,3.131,11.2-12.491A1.3,1.3,0,0,0,299.663,42.762Z"/><path class="cls-4" d="M238.067,104.358h0a1.524,1.524,0,0,1-.018-2.138l46.288-47.853a2.631,2.631,0,0,1,3.752-.031h0a2.632,2.632,0,0,1-.032,3.752l-47.852,46.288A1.525,1.525,0,0,1,238.067,104.358Z"/><rect class="cls-9" x="8.54" y="188.793" width="48.978" height="48.978" rx="3.963" transform="translate(-18.81 3.776) rotate(-5.095)"/><path class="cls-16" d="M42.414,223.743,46.6,212.362l-10.151-8.489-10.461,6.134L21.7,228.216l1.169.978,9.45-11.3a4.246,4.246,0,1,1,1.214,1.015l-9.45,11.3,1.169.978Z"/><rect class="cls-17" x="37.122" y="198.997" width="15.426" height="10.322" transform="translate(141.413 18.784) rotate(39.905)"/><path class="cls-17" d="M18.818,233.924a3.637,3.637,0,0,1-1.136-.072,4.121,4.121,0,0,1-2.525-1.947,8.133,8.133,0,0,1-.978-4.38A23.275,23.275,0,0,1,16.16,219c.294-.738.6-1.472.91-2.205a47.853,47.853,0,0,0,2.071-5.563,13.213,13.213,0,0,0,.15-7.723,7.025,7.025,0,0,0-5.086-4.814,1,1,0,0,1,.34-1.97,8.95,8.95,0,0,1,6.642,6.154,15.135,15.135,0,0,1-.122,8.89,49.031,49.031,0,0,1-2.153,5.8c-.3.722-.607,1.443-.9,2.17a21.463,21.463,0,0,0-1.839,7.791,6.378,6.378,0,0,0,.691,3.348,2.126,2.126,0,0,0,1.261,1.031,2.241,2.241,0,0,0,1.352-.2,8.582,8.582,0,0,0,1.53-.967,1,1,0,1,1,1.182,1.61,10.243,10.243,0,0,1-1.905,1.185A4.714,4.714,0,0,1,18.818,233.924Z"/><rect class="cls-18" x="277.756" y="150.302" width="19.337" height="21.706" transform="translate(-38.737 114.227) rotate(-21.091)"/><rect class="cls-19" x="296.006" y="144.46" width="13.134" height="21.706" transform="translate(-35.62 119.288) rotate(-21.091)"/><rect class="cls-9" x="308.26" y="139.733" width="13.134" height="21.706" transform="translate(-33.098 123.38) rotate(-21.091)"/><rect class="cls-10" x="332.768" y="130.28" width="13.134" height="21.706" transform="translate(-28.055 131.569) rotate(-21.092)"/><rect class="cls-20" x="320.514" y="135.007" width="13.134" height="21.706" transform="translate(-30.577 127.474) rotate(-21.091)"/><rect class="cls-21" x="278.942" y="146.908" width="19.337" height="21.706" transform="translate(-37.983 196.762) rotate(-35.472)"/><rect class="cls-22" x="295.266" y="137.486" width="13.134" height="21.706" transform="translate(-30.062 202.683) rotate(-35.471)"/><rect class="cls-23" x="305.962" y="129.865" width="13.134" height="21.706" transform="translate(-23.654 207.477) rotate(-35.472)"/><rect class="cls-24" x="327.355" y="114.621" width="13.134" height="21.706" transform="translate(-10.838 217.061) rotate(-35.471)"/><rect class="cls-25" x="316.658" y="122.243" width="13.134" height="21.706" transform="translate(-17.246 212.27) rotate(-35.472)"/><rect class="cls-26" x="279.305" y="144.305" width="19.337" height="21.706" transform="translate(-23.597 254.554) rotate(-45.873)"/><rect class="cls-27" x="293.71" y="132.651" width="13.134" height="21.706" transform="translate(-11.797 259.13) rotate(-45.873)"/><rect class="cls-28" x="302.855" y="123.223" width="13.134" height="21.706" transform="translate(-2.252 262.831) rotate(-45.874)"/><rect class="cls-29" x="321.144" y="104.368" width="13.134" height="21.706" transform="translate(16.837 270.23) rotate(-45.873)"/><rect class="cls-30" x="311.999" y="113.796" width="13.134" height="21.706" transform="translate(7.293 266.531) rotate(-45.874)"/><rect class="cls-31" x="279.159" y="141.535" width="19.337" height="21.706" transform="translate(3.202 310.696) rotate(-56.814)"/><rect class="cls-32" x="291.147" y="127.947" width="13.134" height="21.706" transform="translate(18.597 311.984) rotate(-56.814)"/><rect class="cls-33" x="298.336" y="116.955" width="13.134" height="21.706" transform="translate(31.05 313.026) rotate(-56.814)"/><rect class="cls-6" x="312.714" y="94.972" width="13.134" height="21.706" transform="translate(55.955 315.107) rotate(-56.814)"/><rect class="cls-7" x="305.525" y="105.964" width="13.134" height="21.706" transform="translate(43.502 314.065) rotate(-56.814)"/><rect class="cls-34" x="278.348" y="138.418" width="19.337" height="21.706" transform="translate(47.165 366.587) rotate(-69.456)"/><rect class="cls-35" x="287.147" y="123.215" width="13.134" height="21.706" transform="translate(65.099 362.054) rotate(-69.456)"/><rect class="cls-36" x="291.756" y="110.917" width="13.134" height="21.706" transform="translate(79.607 358.387) rotate(-69.456)"/><rect class="cls-37" x="300.974" y="86.32" width="13.134" height="21.706" transform="translate(108.622 351.053) rotate(-69.456)"/><rect class="cls-38" x="296.365" y="98.618" width="13.134" height="21.706" transform="translate(94.114 354.72) rotate(-69.456)"/><path class="cls-18" d="M280.293,152.89a1.446,1.446,0,1,1-.846-1.861A1.444,1.444,0,0,1,280.293,152.89Z"/><rect class="cls-37" x="312.265" y="180.158" width="49.696" height="49.696" rx="4.558" transform="translate(104.915 -113.988) rotate(22.644)"/><path class="cls-39" d="M330.245,185.12,356.077,195.9l-3.568,8.67-1.236-.516q1.329-4.9-.857-7.733a11.6,11.6,0,0,0-4.407-3l-9.429,22.6q-.988,2.37-.484,3.49t3.123,2.214l-.455,1.089-15.293-6.38.454-1.089q2.515,1.048,3.67.607t2.136-2.788l9.428-22.6a11.891,11.891,0,0,0-5.231-1.022q-3.78.395-6.1,4.831l-1.236-.516Z"/><path class="cls-40" d="M70.963,303.336a18.341,18.341,0,0,0,20.294-9.081l31.431-57.739H107.123Z"/><path class="cls-41" d="M172.353,191.733l-40.77-10.871a24.613,24.613,0,0,0-28.072,12.224L56.639,281.209a13.828,13.828,0,0,0,6.768,19.206l4.519,1.934a18.29,18.29,0,0,0,3.037.987l36.16-66.82h65.23Z"/><path class="cls-41" d="M301.982,278.243l-1.806-4.918-58.293-83.383a24.612,24.612,0,0,0-26.514-9.679l-43.016,11.47v44.783l59.661,63.69H286.65A16.333,16.333,0,0,0,301.982,278.243ZM252.64,228.805,292.053,278.5l-44.269-15.422Z"/><path class="cls-40" d="M301.223,274.822l-1.047-1.5,1.806,4.918a16.333,16.333,0,0,1-15.332,21.963H232.014l11.772,12.567h37.663A24.127,24.127,0,0,0,301.223,274.822Z"/><polygon class="cls-40" points="252.64 228.805 247.784 263.078 292.053 278.5 252.64 228.805"/><path class="cls-42" d="M213.3,112.578c-2.4-4.823-5.647-9.459-10.345-12.095s-11.706-2.6-15.761.944c-3.931-6.663-12.1-10.05-19.834-9.736s-15.019,3.825-21.309,8.328a49.768,49.768,0,0,0-14.145,14.836c-4.8,8.134-6.453,17.887-5.717,27.3a64.438,64.438,0,0,0,1.656,10.176,32.65,32.65,0,0,1,10.148-2.963l67.849-5.28a29.935,29.935,0,0,1,12.244,5.12A58.256,58.256,0,0,0,213.3,112.578Z"/><path class="cls-43" d="M137.994,149.371a32.65,32.65,0,0,0-10.148,2.963,91.015,91.015,0,0,0,6.093,16.92c25.145.32,51.683,0,76.811-.988a56.454,56.454,0,0,0,7.337-19.055,29.935,29.935,0,0,0-12.244-5.12Z"/><circle class="cls-44" cx="135.006" cy="171.219" r="10.603"/><path class="cls-3" d="M135.006,175.825a4.606,4.606,0,1,1,4.6-4.606A4.61,4.61,0,0,1,135.006,175.825Z"/><circle class="cls-44" cx="210.164" cy="171.219" r="10.603"/><path class="cls-3" d="M210.164,175.825a4.606,4.606,0,1,1,4.605-4.606A4.61,4.61,0,0,1,210.164,175.825Z"/><path class="cls-1" d="M176.668,124.7c6.135,15.951,21.248,23.569,30.806,26.339a50,50,0,0,0-1.631-6.949,44.945,44.945,0,0,1-29.108-21.109,64.6,64.6,0,0,1-38.741,26.389,52.011,52.011,0,0,0-.762,5.487C156.272,149.539,172.508,138.483,176.668,124.7Z"/><path class="cls-13" d="M176.668,124.7c-4.16,13.782-20.4,23.838-39.436,29.157-.128,1.471-.205,3.96-.205,5.473,0,23.778,15.92,43.055,35.558,43.055s35.558-19.277,35.558-43.055a65.218,65.218,0,0,0-.669-9.291C197.916,147.27,182.8,140.652,176.668,124.7Z"/><path class="cls-45" d="M150.585,152.644a10.22,10.22,0,0,1,11.9-.728c2.378,1.42,4.531-2.285,2.162-3.7a14.353,14.353,0,0,0-16.224.728c-2.185,1.633-.053,5.355,2.163,3.7Z"/><circle class="cls-46" cx="156.534" cy="159.043" r="3.641"/><path class="cls-45" d="M194.591,152.644a10.221,10.221,0,0,0-11.9-.728c-2.378,1.42-4.531-2.285-2.162-3.7a14.352,14.352,0,0,1,16.224.728c2.185,1.633.053,5.355-2.162,3.7Z"/><path class="cls-46" d="M185,159.043a3.642,3.642,0,1,0,3.642-3.642A3.642,3.642,0,0,0,185,159.043Z"/><path class="cls-44" d="M165.852,170.255a8.139,8.139,0,0,0,13.471,0Z"/><path class="cls-11" d="M167.564,184.886a8.881,8.881,0,0,0,4.439.448,28.426,28.426,0,0,0,11.016-3.41,5.062,5.062,0,0,0,2.04-1.718,3.7,3.7,0,0,0,.3-2.567,63.322,63.322,0,0,1-20.007,5.346A5.061,5.061,0,0,0,167.564,184.886Z"/><path class="cls-4" d="M187.572,176.6c-.728.364-1.469.7-2.21,1.035a3.7,3.7,0,0,1-.3,2.567,5.062,5.062,0,0,1-2.04,1.718A28.426,28.426,0,0,1,172,185.334a8.881,8.881,0,0,1-4.439-.448,5.061,5.061,0,0,1-2.209-1.9c-.952.092-1.905.171-2.861.219a11.606,11.606,0,0,0,7.617,7.9,15.677,15.677,0,0,0,11.009-.881,13.776,13.776,0,0,0,6.328-5.276A9.371,9.371,0,0,0,187.572,176.6Z"/><ellipse class="cls-13" cx="71.34" cy="295.349" rx="21.074" ry="16.565"/><path class="cls-19" d="M85.381,299.805l-5.805-2.468a24.73,24.73,0,0,0-19.427,0l-5.8,2.468a7.055,7.055,0,0,0-2.95,10.249l1.749,2.719H86.582l1.749-2.719A7.055,7.055,0,0,0,85.381,299.805Z"/><path class="cls-13" d="M77.562,306.7h0a4.253,4.253,0,0,1-4.253-4.254V290.567h8.507V302.45A4.253,4.253,0,0,1,77.562,306.7Z"/><path class="cls-9" d="M266.86,193.1H91.046a4.262,4.262,0,0,0-4.22,4.858l14.207,100.559a4.284,4.284,0,0,0,4.242,3.685H252.631a4.284,4.284,0,0,0,4.242-3.685L271.08,197.962A4.261,4.261,0,0,0,266.86,193.1Z"/><rect class="cls-19" x="101.17" y="305.062" width="155.567" height="7.711" rx="2.46"/><path class="cls-47" d="M110.324,280.031c11.67,6.722,25.114,9.872,38.53,11.05,19.981,1.754,40.7-.851,58.505-10.088s32.375-25.6,36.953-45.124a55.715,55.715,0,0,0-5.787-39.909H91.046a4.262,4.262,0,0,0-4.22,4.858l9.662,68.393A61.686,61.686,0,0,0,110.324,280.031Z"/><path class="cls-48" d="M266.86,195.96H238.525a55.715,55.715,0,0,1,5.787,39.909c-4.578,19.528-19.149,35.886-36.953,45.124s-38.524,11.842-58.5,10.088c-13.416-1.178-26.86-4.328-38.53-11.05a61.686,61.686,0,0,1-13.836-10.82l4.545,32.166a4.284,4.284,0,0,0,4.242,3.685H252.631a4.284,4.284,0,0,0,4.242-3.685L271.08,200.818A4.262,4.262,0,0,0,266.86,195.96Z"/><path class="cls-16" d="M194.005,255.138c-1.033,6.71-7.717,11.51-15.052,11.51s-14.019-4.8-15.052-11.51c-1.2-7.777,5.46-15.052,15.052-15.052S195.2,247.361,194.005,255.138Z"/><polygon class="cls-7" points="304.135 312.773 330.239 312.773 331.636 303.705 302.738 303.705 304.135 312.773"/><polygon class="cls-7" points="337.721 264.22 296.653 264.22 298.37 275.359 336.004 275.359 337.721 264.22"/><polygon class="cls-32" points="302.418 301.635 302.738 303.705 331.636 303.705 331.955 301.635 302.418 301.635"/><polygon class="cls-49" points="336.004 275.359 298.37 275.359 302.418 301.635 331.955 301.635 336.004 275.359"/><polygon class="cls-4" points="340.618 259.579 293.755 259.579 293.117 264.22 341.257 264.22 340.618 259.579"/><polygon class="cls-5" points="335.22 254.938 299.154 254.938 297.886 259.579 336.488 259.579 335.22 254.938"/><rect class="cls-50" x="307.711" y="252.724" width="18.951" height="2.213"/></g></g></svg>