<?xml version="1.0" encoding="utf-8"?>
<!-- Generator: Adobe Illustrator 23.0.3, SVG Export Plug-In . SVG Version: 6.00 Build 0)  -->
<svg version="1.1" id="Livello_1" xmlns="http://www.w3.org/2000/svg" xmlns:xlink="http://www.w3.org/1999/xlink" x="0px" y="0px"
	 viewBox="0 0 2000 1200" style="enable-background:new 0 0 2000 1200;" xml:space="preserve">
<style type="text/css">
	.st0{fill:url(#SVGID_1_);}
</style>
<linearGradient id="SVGID_1_" gradientUnits="userSpaceOnUse" x1="556.8329" y1="161.6776" x2="1676.9099" y2="1263.3625">
	<stop  offset="0" style="stop-color:#280055"/>
	<stop  offset="0.2055" style="stop-color:#2A00DB"/>
	<stop  offset="0.4357" style="stop-color:#2D00B4"/>
	<stop  offset="0.6616" style="stop-color:#2F0097"/>
	<stop  offset="0.8571" style="stop-color:#300085"/>
	<stop  offset="1" style="stop-color:#30007F"/>
</linearGradient>
<path class="st0" d="M1989.9-4c11.1,0,20.1,9,20.1,20.1v1173.7c0,11.1-9.1,20.2-20.2,20.1l-1975.7-6.9C3,1203-6,1194-6,1182.9
	v-164.8c0-5.4,2.2-10.6,6-14.4c27.2-26.6,145.7-134.4,353.4-139.6c234.1-5.9,375-1.5,444.8-145.5c53.3-109.9,13-227,233.1-380
	C1227.2,202.3,1271.8,91.6,1215.4,0"/>
</svg>
