<?xml version="1.0" encoding="utf-8"?>
<!-- Generator: Adobe Illustrator 23.0.3, SVG Export Plug-In . SVG Version: 6.00 Build 0)  -->
<svg version="1.1" id="Livello_1" xmlns="http://www.w3.org/2000/svg" xmlns:xlink="http://www.w3.org/1999/xlink" x="0px" y="0px"
	 viewBox="0 0 512 512" style="enable-background:new 0 0 512 512;" xml:space="preserve">
<style type="text/css">
	.st0{fill:#C1D629;}
	.st1{fill:#B7DBF6;}
	.st2{fill:#97CBEF;}
	.st3{fill:#122894;}
	.st4{fill:#012481;}
	.st5{fill:#E8F3FC;}
	.st6{fill:#F4B500;}
	.st7{fill:#A54F2D;}
	.st8{fill:#914429;}
	.st9{fill:#F29B00;}
	.st10{fill:#B2603B;}
	.st11{fill:#FCE275;}
	.st12{fill:#F9CE00;}
	.st13{fill:#05B8E2;}
	.st14{fill:#06DAF7;}
	.st15{fill:#60B4E2;}
	.st16{fill:#EF4A8A;}
	.st17{fill:#E5387F;}
	.st18{fill:#82B218;}
	.st19{fill:#07A3D3;}
	.st20{fill:#D32976;}
</style>
<path class="st0" d="M245,11c-38.6,0-75,8.9-107.5,24.8L65.6,422.9c29.6,31.8,67.6,55.7,110.4,68.3l127.4,2.8
	C410.5,467.8,490,371.2,490,256C490,120.7,380.3,11,245,11z"/>
<path class="st1" d="M245,501c21.5,0,42.3-2.8,62.1-7.9c-1.5-3.2-2.5-6.9-3-11.5l-4.2-59.8c-14.7,0-106.9,0-121.7,0l-4.2,59.8
	c-0.3,3.3-0.9,6-1.7,8.5C195.3,497.2,219.7,501,245,501z"/>
<path class="st2" d="M197,456.1h84.2c9.4,0,17.7,5.2,22.1,12.9l-3.3-47.2c-14.7,0-106.9,0-121.7,0l-3.3,47
	C179.4,461.1,187.6,456.1,197,456.1z"/>
<path class="st3" d="M492,35.2H138.6c-16.2,7.8-31.4,17.4-45.4,28.4L12.7,333.8c3.3,10,7.3,19.7,11.8,29H512V55.2
	C512,44.2,503,35.2,492,35.2z"/>
<path class="st4" d="M65.6,156.3l-53,177.6c3.3,10,7.3,19.7,11.8,29h41.1V156.3z"/>
<path class="st5" d="M66.5,423.7H492c11,0,20-9,20-20v-40.9H24.5C35.4,385.3,49.6,405.8,66.5,423.7z"/>
<path class="st1" d="M65.6,403.7v-40.9H24.5c10.9,22.4,25.1,42.9,42,60.9h19.2C74.6,423.7,65.6,414.7,65.6,403.7z"/>
<path class="st5" d="M484,62.6H285.4c-0.4,0-0.6,0.7-0.6,1.6v269.7c0,0.9,0.3,1.6,0.6,1.6H484c0.4,0,0.6-0.7,0.6-1.6V64.2
	C484.6,63.3,484.3,62.6,484,62.6z"/>
<path class="st1" d="M339.9,62.6h-55c-0.1,0-0.2,0.7-0.2,1.6v269.7c0,0.9,0.1,1.6,0.2,1.6h55c0.1,0,0.2-0.7,0.2-1.6V64.2
	C340.1,63.3,340,62.6,339.9,62.6z"/>
<path class="st1" d="M252.8,393.3c0,7.6-6.1,13.7-13.7,13.7s-13.7-6.1-13.7-13.7s6.1-13.7,13.7-13.7S252.8,385.8,252.8,393.3z"/>
<path class="st6" d="M0,256c0,1,0,1.9,0,2.9c6-4.9,15.2-10.9,29.5-17.4c34.8-15.7,50.7-41.7,57.8-60.1c3.3-8.6,13.6-12,21.4-7.2
	l0.1,0.1c4.7,2.9,10.5,2.9,15.2,0.1l0.2-0.1c7.8-4.7,17.9-1.1,21.2,7.3c4.4,11.4,12.2,25.6,25.8,38.6c8.8-5,16.1-10.7,22-16.5
	c4.3-4.2,11.3-4.2,15.6,0c7.7,7.6,17.7,15,30.2,20.7V62.6H94.6C37,107.5,0,177.4,0,256z"/>
<path class="st7" d="M239,219.3c-12.6-5.8-22.5-13.2-30.3-20.7c-4.3-4.2-11.3-4.2-15.6,0c-6.4,6.2-14.2,12.3-23.8,17.5
	c8.7,8.6,19.8,16.6,33.9,23c19.9,9,30.3,17.2,35.7,22.8V219.3z"/>
<path class="st8" d="M199.8,231.1c0-11.4,9.3-20.7,20.7-20.7c1,0,2.1,0.1,3.1,0.3c-5.6-3.8-10.5-7.9-14.8-12.1
	c-4.3-4.2-11.3-4.2-15.6,0c-6.4,6.2-14.2,12.3-23.8,17.5c8.2,8.1,18.6,15.7,31.6,21.9C200.2,235.8,199.8,233.5,199.8,231.1z"/>
<path class="st9" d="M65.6,89.2C24.9,132.9,0,191.5,0,256c0,1,0,1.9,0,2.9c6-4.9,15.2-10.9,29.5-17.4c15.5-7,27.2-16,36.1-25.5V89.2
	z"/>
<path class="st10" d="M203.2,236.5c-34.8-15.7-50.6-41.6-57.8-60c-3.3-8.5-13.4-11.9-21.2-7.3l-0.2,0.1c-4.7,2.8-10.6,2.8-15.2-0.1
	l-0.1,0c-7.8-4.8-18-1.3-21.4,7.3c-7.2,18.4-23,44.3-57.8,60.1C15.3,242.9,6,248.9,0,253.9c0,0.7,0,1.4,0,2.1c0,9,0.5,17.8,1.4,26.5
	c20.1-12.2,63.5-28.9,114.9,8.7c59.6-43.6,108.3-14.3,122.7-3.5v-27.9C234.1,254.4,224,245.9,203.2,236.5z"/>
<path class="st7" d="M78.8,252.9c20.1-19.4,29.3-51.4,33.5-74.2c0.5-3,1.4-5.5,2.5-7.4c-2.1-0.2-4.2-0.9-6-2.1l-0.1,0
	c-7.8-4.8-18-1.3-21.4,7.3c-7.2,18.4-23,44.3-57.8,60.1C15.3,242.9,6,248.9,0,253.9c0,0.7,0,1.4,0,2.1c0,9,0.5,17.8,1.4,26.5
	c12.9-7.8,35.5-17.5,63.6-13.5C68.3,264.2,72.8,258.7,78.8,252.9z"/>
<path class="st11" d="M199.6,132.3c0,12.6-10.2,22.8-22.8,22.8c-12.6,0-22.8-10.2-22.8-22.8s10.2-22.8,22.8-22.8
	C189.4,109.5,199.6,119.7,199.6,132.3z"/>
<path class="st12" d="M185.5,137.8c-7.8,0-14.1-6.3-14.1-14.1c0-6.5,4.4-11.9,10.3-13.6c-1.6-0.3-3.2-0.5-4.9-0.5
	c-12.6,0-22.8,10.2-22.8,22.8c0,12.6,10.2,22.8,22.8,22.8c12.6,0,22.8-10.2,22.8-22.8c0-1.7-0.2-3.3-0.5-4.9
	C197.4,133.4,192,137.8,185.5,137.8z"/>
<path class="st13" d="M239,285.7c-14.3-10.8-63.1-40.1-122.7,3.5c59.6,43.6,108.3,14.3,122.7,3.5V285.7z"/>
<path class="st13" d="M239,285.7c-14.3-10.8-63.1-40.1-122.7,3.5c59.6,43.6,108.3,14.3,122.7,3.5V285.7z"/>
<path class="st14" d="M116.3,289.2c-51.6-37.7-95.1-20.8-115.1-8.6c1.9,19,6,37.4,12,54.8H239v-42.7
	C224.7,303.5,175.9,332.8,116.3,289.2z"/>
<path class="st13" d="M65.6,267.1c-28.5-4.3-51.4,5.6-64.4,13.5c1.9,19,6,37.4,12,54.8h52.4V267.1z"/>
<path class="st1" d="M462,82.9H315.1c-2,0-3.6,1.6-3.6,3.6v105.9c0,2,1.6,3.6,3.6,3.6H462c2,0,3.6-1.6,3.6-3.6V86.5
	C465.6,84.5,464,82.9,462,82.9z"/>
<path class="st2" d="M340.1,82.9h-25c-2,0-3.6,1.6-3.6,3.6v105.9c0,2,1.6,3.6,3.6,3.6h25V82.9z"/>
<path class="st2" d="M465.6,109.5v-23c0-2-1.6-3.6-3.6-3.6H315.1c-2,0-3.6,1.6-3.6,3.6v23H465.6z"/>
<path class="st15" d="M340.1,82.9h-25c-2,0-3.6,1.6-3.6,3.6v23h28.6V82.9z"/>
<path class="st1" d="M454.5,234.1H375c-2.7,0-4.8-2.2-4.8-4.8s2.2-4.8,4.8-4.8h79.6c2.7,0,4.8,2.2,4.8,4.8S457.2,234.1,454.5,234.1z
	"/>
<path class="st16" d="M375,237.9h-51.3c-4.8,0-8.7-3.9-8.7-8.7s3.9-8.7,8.7-8.7H375c4.8,0,8.7,3.9,8.7,8.7S379.8,237.9,375,237.9z"
	/>
<path class="st17" d="M387.6,229.2c0,7-5.7,12.7-12.7,12.7c-7,0-12.7-5.7-12.7-12.7s5.7-12.7,12.7-12.7
	C382,216.6,387.6,222.3,387.6,229.2z"/>
<path class="st1" d="M454.5,269.9h-32.1c-2.7,0-4.8-2.2-4.8-4.8c0-2.7,2.2-4.8,4.8-4.8h32.1c2.7,0,4.8,2.2,4.8,4.8
	C459.3,267.7,457.2,269.9,454.5,269.9z"/>
<path class="st12" d="M422.5,273.7h-98.8c-4.8,0-8.7-3.9-8.7-8.7c0-4.8,3.9-8.7,8.7-8.7h98.8c4.8,0,8.7,3.9,8.7,8.7
	C431.1,269.9,427.2,273.7,422.5,273.7z"/>
<path class="st6" d="M435.1,265.1c0,7-5.7,12.7-12.7,12.7s-12.7-5.7-12.7-12.7c0-7,5.7-12.7,12.7-12.7S435.1,258.1,435.1,265.1z"/>
<path class="st1" d="M454.5,305.7h-88.2c-2.7,0-4.8-2.2-4.8-4.8s2.2-4.8,4.8-4.8h88.2c2.7,0,4.8,2.2,4.8,4.8
	S457.2,305.7,454.5,305.7z"/>
<path class="st0" d="M366.3,309.6h-42.6c-4.8,0-8.7-3.9-8.7-8.7s3.9-8.7,8.7-8.7h42.6c4.8,0,8.7,3.9,8.7,8.7
	S371.1,309.6,366.3,309.6z"/>
<path class="st17" d="M334.5,229.2c0-4.8,3.9-8.7,8.7-8.7h-19.5c-4.8,0-8.7,3.9-8.7,8.7s3.9,8.7,8.7,8.7h19.5
	C338.4,237.9,334.5,234,334.5,229.2z"/>
<path class="st6" d="M334.5,265.1c0-4.8,3.9-8.7,8.7-8.7h-19.5c-4.8,0-8.7,3.9-8.7,8.7c0,4.8,3.9,8.7,8.7,8.7h19.5
	C338.4,273.7,334.5,269.9,334.5,265.1z"/>
<path class="st18" d="M334.5,300.9c0-4.8,3.9-8.7,8.7-8.7h-19.5c-4.8,0-8.7,3.9-8.7,8.7s3.9,8.7,8.7,8.7h19.5
	C338.4,309.6,334.5,305.7,334.5,300.9z"/>
<path class="st18" d="M379,300.9c0,7-5.7,12.7-12.7,12.7s-12.7-5.7-12.7-12.7s5.7-12.7,12.7-12.7S379,293.9,379,300.9z"/>
<path class="st13" d="M238,101.6h50.9v39H238V101.6z"/>
<path class="st14" d="M238,140.6h50.9v39H238V140.6z"/>
<path class="st17" d="M238,179.6h50.9v39H238V179.6z"/>
<path class="st16" d="M238,218.5h50.9v39H238V218.5z"/>
<path class="st6" d="M238,257.5h50.9v39H238V257.5z"/>
<path class="st0" d="M238,62.6h50.9v39H238V62.6z"/>
<path class="st12" d="M238,335.4h50.9v-39H238V335.4z"/>
<path class="st19" d="M238,140.6h0.5C238.3,140.6,238.2,140.6,238,140.6L238,140.6z"/>
<path class="st19" d="M238.5,101.6H238v0C238.2,101.6,238.3,101.6,238.5,101.6z"/>
<path class="st19" d="M250.5,101.6c10.8,0,19.5,8.7,19.5,19.5c0,10.8-8.7,19.5-19.5,19.5h38.5v-39H250.5z"/>
<path class="st13" d="M238.5,140.6H238v0C238.2,140.6,238.3,140.6,238.5,140.6z"/>
<path class="st13" d="M238,179.6h0.5C238.3,179.6,238.2,179.5,238,179.6L238,179.6z"/>
<path class="st13" d="M250.5,140.6c10.8,0,19.5,8.7,19.5,19.5s-8.7,19.5-19.5,19.5h38.5v-39H250.5z"/>
<path class="st20" d="M238.5,179.6H238v0C238.2,179.6,238.3,179.6,238.5,179.6z"/>
<path class="st20" d="M250.5,179.6c10.8,0,19.5,8.7,19.5,19.5c0,10.8-8.7,19.5-19.5,19.5h38.5v-39L250.5,179.6L250.5,179.6z"/>
<path class="st20" d="M238,218.5h0.5C238.3,218.5,238.2,218.5,238,218.5L238,218.5z"/>
<path class="st17" d="M238.5,218.5H238v0C238.2,218.5,238.3,218.5,238.5,218.5z"/>
<path class="st17" d="M250.5,218.5c10.8,0,19.5,8.7,19.5,19.5s-8.7,19.5-19.5,19.5h38.5v-39H250.5z"/>
<path class="st17" d="M238,257.5h0.5C238.3,257.5,238.2,257.5,238,257.5L238,257.5z"/>
<g>
	<path class="st9" d="M238,296.5h0.5C238.3,296.5,238.2,296.5,238,296.5L238,296.5z"/>
	<path class="st9" d="M238.5,257.5H238v0C238.2,257.5,238.3,257.5,238.5,257.5z"/>
	<path class="st9" d="M250.5,257.5c10.8,0,19.5,8.7,19.5,19.5s-8.7,19.5-19.5,19.5h38.5v-39H250.5z"/>
</g>
<path class="st18" d="M238.5,62.6H238v0C238.2,62.6,238.3,62.6,238.5,62.6z"/>
<path class="st18" d="M238,101.6h0.5C238.3,101.6,238.2,101.6,238,101.6L238,101.6z"/>
<path class="st18" d="M250.5,62.6c10.8,0,19.5,8.7,19.5,19.5s-8.7,19.5-19.5,19.5h38.5v-39H250.5z"/>
<path class="st6" d="M238.5,296.5H238v0C238.2,296.5,238.3,296.5,238.5,296.5z"/>
<path class="st6" d="M250.5,296.5c10.8,0,19.5,8.7,19.5,19.5s-8.7,19.5-19.5,19.5h38.5v-39H250.5z"/>
<path class="st19" d="M177.7,288.7c0-9.9,6.1-18.4,14.8-21.9c-21.1-2.7-47.3,1.4-76.1,22.4c29.7,21.7,56.8,25.3,78.2,22.1
	C184.8,308.4,177.7,299.4,177.7,288.7z"/>
</svg>
