<?xml version="1.0" encoding="utf-8"?>
<!-- Generator: Adobe Illustrator 23.0.3, SVG Export Plug-In . SVG Version: 6.00 Build 0)  -->
<svg version="1.1" id="Livello_1" xmlns="http://www.w3.org/2000/svg" xmlns:xlink="http://www.w3.org/1999/xlink" x="0px" y="0px"
	 viewBox="0 0 314.9 314.9" style="enable-background:new 0 0 314.9 314.9;" xml:space="preserve">
<style type="text/css">
	.st0{fill:#FFFFFF;}
	.st1{fill:#003273;}
	.st2{fill:none;stroke:#000000;stroke-width:3;stroke-miterlimit:10;}
	.st3{fill:none;stroke:#000000;stroke-width:3;stroke-linejoin:round;}
	.st4{fill:none;stroke:#FFFFFF;stroke-width:3;stroke-miterlimit:10;}
</style>
<title>Risorsa 6</title>
<g id="Livello_1-2">
	<g id="XMLID_1_">
		<g>
			<rect x="124.9" y="232.4" class="st0" width="65.1" height="42.5"/>
			<path class="st0" d="M105.6,184.3c0,1.8,1.5,3.3,3.3,3.3h4.7h106.5l19.5-7l8.8-3.2l-8.7-3.1l-19.6-7.1H113.6h-4.7
				c-1.8,0-3.3,1.5-3.3,3.3V184.3z M181.5,67.9c0.9-1.1,1.4-2.1,0.3-2.9c-1.1-0.8-2.4,0.2-3.3,1.2l-40.2,47.3l-17.9,21.1
				c-3.5,0-6.6,2-8.2,5.1c-2.3,4.5-1.6,8.1-3.9,16.6c-0.7,2.5,13.7-4.8,16.6-9c2-2.8,2.2-6.4,0.4-9.4l17-21.2L181.5,67.9z
				 M313.4,55.4v143.3H1.5V55.4C1.5,46.9,8.4,40,16.9,40H298C306.5,40,313.4,46.9,313.4,55.4z M97.8,182.7v-125c0-4-3.3-7.3-7.3-7.3
				H79.9c-4,0-7.3,3.3-7.3,7.3v125c0,4,3.3,7.3,7.3,7.3h10.6C94.5,190,97.8,186.7,97.8,182.7z"/>
			<path class="st1" d="M313.4,198.7v18.4c0,4.2-1.7,8.1-4.5,10.9c-1.2,1.2-2.6,2.2-4.2,3c-2,1-4.3,1.5-6.7,1.5H190h-65.1h-108
				c-2.4,0-4.7-0.5-6.7-1.5c-1.6-0.8-3-1.8-4.2-3c-2.8-2.8-4.5-6.6-4.5-10.9v-18.4H313.4z"/>
			<polygon class="st1" points="248.4,177.4 239.6,180.6 239,180 239,175 239.8,174.3 			"/>
			<polygon class="st0" points="239,180 239.6,180.6 220.1,187.6 220.1,181.4 220.1,173.6 220.1,173.5 220.1,167.2 239.8,174.3 
				239,175 			"/>
			<rect x="113.6" y="181.4" class="st1" width="106.5" height="6.3"/>
			<polygon class="st1" points="220.1,173.6 220.1,173.6 113.6,173.5 113.6,167.2 220.1,167.2 220.1,173.5 			"/>
			<polygon class="st1" points="220.1,173.6 220.1,181.4 113.6,181.4 113.6,173.5 			"/>
			<path class="st0" d="M181.8,64.9c1.1,0.8,0.6,1.8-0.3,2.9l-39.2,48.8l-4-3.2l40.2-47.3C179.4,65.1,180.7,64.1,181.8,64.9z"/>
			<path d="M142.4,116.6l-17,21.2c-0.8-1.2-1.8-2.2-3-2.9c-0.6-0.3-1.2-0.4-1.8-0.4l17.9-21.1L142.4,116.6z"/>
			<path class="st1" d="M125.3,137.8c1.7,2.9,1.6,6.6-0.4,9.4c-2.9,4.1-17.2,11.4-16.6,9c2.3-8.5,1.7-12.1,3.9-16.6
				c1.5-3.1,4.7-5.1,8.2-5.1l-1.1,1.4c-0.8,0.9-0.8,2.2,0,3.1l0.6,0.7c0.1,0.1,0.2,0.2,0.3,0.3l0,0c0.1,0.1,0.2,0.2,0.3,0.2
				c0,0,0.1,0,0.1,0.1c0.1,0.1,0.2,0.1,0.3,0.1c0,0,0.1,0.1,0.2,0.1s0.2,0.1,0.3,0.1c0.1,0,0.2,0,0.2,0h0.1c0.2,0,0.3,0,0.4,0
				s0.2,0,0.2,0c0.1,0,0.1,0,0.2,0s0.2-0.1,0.3-0.1c0.1,0,0.2-0.1,0.2-0.1c0.2-0.1,0.4-0.2,0.6-0.4c0.1-0.1,0.2-0.2,0.3-0.3
				L125.3,137.8z"/>
			<path class="st1" d="M123.7,139.8c0.1-0.1,0.2-0.2,0.3-0.3C123.9,139.6,123.8,139.7,123.7,139.8z"/>
			<path class="st1" d="M122.9,140.3c0.1,0,0.2-0.1,0.2-0.1C123,140.2,123,140.3,122.9,140.3z"/>
			<path class="st1" d="M122.4,140.4c0.1,0,0.1,0,0.2,0C122.6,140.4,122.5,140.4,122.4,140.4z"/>
			<path class="st1" d="M122.2,140.4c-0.1,0-0.3,0-0.4,0C121.9,140.5,122,140.5,122.2,140.4z"/>
			<path class="st1" d="M121.4,140.4c0.1,0,0.2,0,0.2,0C121.5,140.4,121.4,140.4,121.4,140.4z"/>
			<path class="st1" d="M120.9,140.3c0,0,0.1,0.1,0.2,0.1C121,140.3,121,140.3,120.9,140.3z"/>
			<path class="st1" d="M122.3,134.9c1.3,0.7,2.3,1.7,3,2.9l-1.3,1.6c-0.1,0.1-0.2,0.2-0.3,0.3c-0.2,0.2-0.4,0.3-0.6,0.4
				c-0.1,0-0.2,0.1-0.2,0.1c-0.1,0-0.2,0.1-0.3,0.1c-0.1,0-0.1,0-0.2,0s-0.2,0-0.2,0c-0.2,0-0.3,0-0.4,0h-0.1c-0.1,0-0.2,0-0.2,0
				c-0.1,0-0.2,0-0.3-0.1c0,0-0.1,0-0.2-0.1c-0.1,0-0.2-0.1-0.3-0.1c-0.1,0-0.1-0.1-0.1-0.1c-0.1-0.1-0.2-0.2-0.3-0.2l0,0
				c-0.1-0.1-0.2-0.2-0.3-0.3l-0.6-0.7c-0.8-0.9-0.7-2.2,0-3.1l1.1-1.4C121.1,134.5,121.7,134.6,122.3,134.9z"/>
			<path d="M113.6,173.5v7.8v6.3h-4.7c-1.8,0-3.3-1.5-3.3-3.3v-13.8c0-1.8,1.5-3.3,3.3-3.3h4.7V173.5z"/>
			<path class="st1" d="M94.8,59.1v5.6v5.6v5.6v5.6v5.6v5.6v5.6v5.6v5.6v5.6v5.6v5.8v5.6v5.6v5.6v5.6v5.6v6.1v5.6v5.6v6.1v5.3
				c0,2.4-1.9,4.3-4.3,4.3H79.9c-2.4,0-4.3-1.9-4.3-4.3v-125c0-2.4,1.9-4.3,4.3-4.3h10.6c2.4,0,4.3,1.9,4.3,4.3V59.1z"/>
			<path d="M90.5,51.9c3.2,0,5.8,2.6,5.8,5.8v125c0,3.2-2.6,5.8-5.8,5.8H79.9c-3.2,0-5.8-2.6-5.8-5.8v-125c0-3.2,2.6-5.8,5.8-5.8
				C79.9,51.9,90.5,51.9,90.5,51.9z M94.8,59.1v-1.4c0-2.4-1.9-4.3-4.3-4.3H79.9c-2.4,0-4.3,1.9-4.3,4.3v125c0,2.4,1.9,4.3,4.3,4.3
				h10.6c2.4,0,4.3-1.9,4.3-4.3v-5.3v-6.1v-5.6v-5.6V154v-5.6v-5.6v-5.6v-5.6V126v-5.8v-5.6V109v-5.6v-5.6v-5.6v-5.6V81v-5.6v-5.6
				v-5.6V59.1z"/>
			<path d="M96.3,57.7c0-3.2-2.6-5.8-5.8-5.8H79.9c-3.2,0-5.8,2.6-5.8,5.8v125c0,3.2,2.6,5.8,5.8,5.8h10.6c3.2,0,5.8-2.6,5.8-5.8
				V57.7z M97.8,57.7v125c0,4-3.3,7.3-7.3,7.3H79.9c-4,0-7.3-3.3-7.3-7.3v-125c0-4,3.3-7.3,7.3-7.3h10.6
				C94.5,50.4,97.8,53.7,97.8,57.7z"/>
			<path class="st1" d="M6,227.9c1.2,1.2,2.6,2.2,4.2,3C8.6,230.2,7.2,229.2,6,227.9z"/>
		</g>
		<g>
			<polyline class="st2" points="190,232.4 190,274.9 190,275.3 			"/>
			<path class="st2" d="M313.4,198.7V55.4c0-8.5-6.9-15.4-15.4-15.4H16.9C8.4,40,1.5,46.9,1.5,55.4v143.3v18.4
				c0,4.2,1.7,8.1,4.5,10.9c1.2,1.2,2.6,2.2,4.2,3c2,1,4.3,1.5,6.7,1.5h108H190h108c2.4,0,4.7-0.5,6.7-1.5c1.6-0.8,3-1.8,4.2-3
				c2.8-2.8,4.5-6.6,4.5-10.9L313.4,198.7L313.4,198.7z"/>
			<polyline class="st2" points="124.9,232.4 124.9,274.9 124.9,275.3 			"/>
			<polyline class="st2" points="110.1,274.9 124.9,274.9 190,274.9 205,274.9 			"/>
			<line class="st2" x1="1.5" y1="198.7" x2="313.4" y2="198.7"/>
			<path class="st3" d="M220.1,167.2H113.6h-4.7c-1.8,0-3.3,1.5-3.3,3.3v13.8c0,1.8,1.5,3.3,3.3,3.3h4.7h106.5"/>
			<polyline class="st2" points="113.6,187.6 113.6,181.4 113.6,173.5 113.6,167.2 			"/>
			<polygon class="st3" points="239.6,180.6 248.4,177.4 239.8,174.3 220.1,167.2 220.1,173.5 220.1,173.6 220.1,181.4 220.1,187.6 
							"/>
			<line class="st3" x1="113.6" y1="181.4" x2="220.1" y2="181.4"/>
			<polyline class="st3" points="113.6,173.6 113.6,173.5 220.1,173.6 			"/>
			<path class="st2" d="M120.5,134.5l17.9-21.1l40.2-47.3c0.9-1.1,2.1-2,3.3-1.2c1.1,0.8,0.6,1.8-0.3,2.9l-39.2,48.8l-17,21.2"/>
			<path class="st2" d="M120.5,134.5c0.6,0,1.3,0.2,1.8,0.4c1.3,0.7,2.3,1.7,3,2.9c1.7,2.9,1.6,6.6-0.4,9.4
				c-2.9,4.1-17.2,11.4-16.6,9c2.3-8.5,1.7-12.1,3.9-16.6C113.8,136.5,117,134.5,120.5,134.5z"/>
			<line class="st2" x1="138.4" y1="113.4" x2="142.4" y2="116.6"/>
			<line class="st4" x1="94.8" y1="59.1" x2="80.3" y2="59.1"/>
			<line class="st4" x1="94.8" y1="64.6" x2="87.6" y2="64.6"/>
			<line class="st4" x1="94.8" y1="70.2" x2="87.6" y2="70.2"/>
			<line class="st4" x1="94.8" y1="75.8" x2="80.3" y2="75.8"/>
			<line class="st4" x1="94.8" y1="81.4" x2="87.6" y2="81.4"/>
			<line class="st4" x1="94.8" y1="86.9" x2="87.6" y2="86.9"/>
			<line class="st4" x1="94.8" y1="92.5" x2="80.3" y2="92.5"/>
			<line class="st4" x1="94.8" y1="98.1" x2="87.6" y2="98.1"/>
			<line class="st4" x1="94.8" y1="103.7" x2="87.6" y2="103.7"/>
			<line class="st4" x1="94.8" y1="109.2" x2="80.3" y2="109.2"/>
			<line class="st4" x1="94.8" y1="114.8" x2="87.6" y2="114.8"/>
			<line class="st4" x1="94.8" y1="120.4" x2="87.6" y2="120.4"/>
			<line class="st4" x1="94.8" y1="126.2" x2="80.3" y2="126.2"/>
			<line class="st4" x1="94.8" y1="131.8" x2="87.6" y2="131.8"/>
			<line class="st4" x1="94.8" y1="137.3" x2="87.6" y2="137.3"/>
			<line class="st4" x1="94.8" y1="142.9" x2="80.3" y2="142.9"/>
			<line class="st4" x1="94.8" y1="148.5" x2="87.6" y2="148.5"/>
			<line class="st4" x1="94.8" y1="154.1" x2="87.6" y2="154.1"/>
			<line class="st4" x1="94.8" y1="160.2" x2="80.3" y2="160.2"/>
			<line class="st4" x1="94.8" y1="165.7" x2="87.6" y2="165.7"/>
			<line class="st4" x1="94.8" y1="171.3" x2="87.6" y2="171.3"/>
			<line class="st4" x1="94.8" y1="177.4" x2="80.3" y2="177.4"/>
		</g>
	</g>
</g>
</svg>
