<?xml version="1.0" encoding="utf-8"?>
<!-- Generator: Adobe Illustrator 23.0.3, SVG Export Plug-In . SVG Version: 6.00 Build 0)  -->
<svg version="1.1" id="Livello_1" xmlns="http://www.w3.org/2000/svg" xmlns:xlink="http://www.w3.org/1999/xlink" x="0px" y="0px"
	 viewBox="0 0 384.9 389.6" style="enable-background:new 0 0 384.9 389.6;" xml:space="preserve">
<style type="text/css">
	.st0{fill:#FFFFFF;}
	.st1{fill:#003273;}
	.st2{fill:none;stroke:#000000;stroke-width:2;stroke-miterlimit:10;}
	.st3{fill:none;stroke:#000000;stroke-width:3;stroke-linecap:round;stroke-linejoin:round;}
	.st4{fill:none;stroke:#003273;stroke-width:3;stroke-linecap:round;stroke-linejoin:round;}
	.st5{fill:none;stroke:#000000;stroke-width:3;stroke-miterlimit:10;}
</style>
<title>Risorsa 7</title>
<g id="Livello_1-2">
	<g id="XMLID_1_">
		<g>
			<path class="st0" d="M179.9,355.6L179.9,355.6c-8.3-0.6-16.3-1.9-24.1-3.7l0,0v-50.4h24.1V355.6z"/>
			<path class="st1" d="M344.4,33.6c2.1,0,3.8,1.7,3.8,3.8c0,2.1-1.7,3.8-3.8,3.8c-1,0-2-0.4-2.7-1.1c-0.7-0.7-1.1-1.6-1.1-2.7
				C340.7,35.3,342.3,33.6,344.4,33.6z"/>
			<path class="st1" d="M278.1,216l-49,85.4h-49.2h-24.1l-49-85.4c37.8-46.8,65.5-97.8,83.1-153v137.4c-7.5,1.4-12.4,8.7-11,16.1
				c1.4,7.5,8.6,12.4,16.1,11s12.4-8.7,11-16.2c-1.1-5.6-5.4-9.9-11-11V62.8C213.8,120.2,239.3,172.8,278.1,216z"/>
			<path class="st1" d="M229.1,301.4v50.4c-0.8,0.2-1.5,0.4-2.3,0.5c-0.8,0.2-1.5,0.3-2.3,0.5c-1.5,0.3-3,0.6-4.5,0.9
				c-0.8,0.1-1.5,0.3-2.3,0.4c-0.5,0.1-1,0.2-1.5,0.2c-0.5,0.1-1,0.1-1.5,0.2s-1.1,0.1-1.6,0.2c-0.8,0.1-1.5,0.2-2.3,0.3
				c-1.4,0.2-2.8,0.3-4.2,0.4c-0.2,0-0.3,0-0.5,0c-0.7,0.1-1.5,0.1-2.2,0.2s-1.4,0.1-2.1,0.1c-0.5,0-0.9,0-1.4,0.1
				c-0.7,0-1.3,0.1-2,0.1c-0.5,0-1,0-1.5,0c-0.7,0-1.5,0-2.2,0s-1.4,0-2.1,0c-0.1,0-0.2,0-0.3,0c-4.2,0-8.4-0.2-12.5-0.5l0,0v-54.2
				h49.3V301.4z"/>
			<path class="st1" d="M214.9,354.5c0.5-0.1,1-0.1,1.5-0.2C215.8,354.4,215.3,354.5,214.9,354.5z"/>
			<path class="st1" d="M198.6,356c0.7,0,1.3-0.1,2-0.1C199.9,355.9,199.3,356,198.6,356z"/>
			<polygon class="st1" points="197.9,32 197.9,37.4 192.5,37.4 187,37.4 187,32 			"/>
			<path class="st1" d="M197.9,37.5c-1.8-0.1-3.6-0.1-5.4-0.1L197.9,37.5L197.9,37.5z"/>
			<path class="st1" d="M192.5,37.4c1.8,0,3.6,0,5.4,0.1v5.3h-10.8v-5.3C188.8,37.4,190.6,37.4,192.5,37.4z"/>
			<path class="st1" d="M187,37.4h5.4C190.6,37.4,188.8,37.4,187,37.4L187,37.4z"/>
			<path class="st1" d="M44.2,37.4c0,2.1-1.7,3.8-3.8,3.8c-2.1,0-3.7-1.7-3.7-3.8c0-2.1,1.7-3.8,3.8-3.8S44.2,35.3,44.2,37.4
				L44.2,37.4z"/>
		</g>
		<g>
			<path class="st2" d="M155.8,301.4l-49-85.4c37.8-46.8,65.5-97.8,83.1-153v137.4c-7.5,1.4-12.4,8.7-11,16.1
				c1.4,7.5,8.6,12.4,16.1,11s12.4-8.7,11-16.2c-1.1-5.6-5.4-9.9-11-11V62.8c18.8,57.4,44.3,110.1,83.1,153.3l-49,85.4"/>
			<line class="st3" x1="155.8" y1="301.4" x2="155.8" y2="351.9"/>
			<line class="st3" x1="229.1" y1="301.4" x2="229.1" y2="351.9"/>
			<line class="st3" x1="179.9" y1="301.4" x2="179.9" y2="355.6"/>
			<path class="st4" d="M187,37.5C99.1,40.4,30.1,114.1,33.1,202c2.4,72.9,53.7,133.6,122.7,149.8c7.8,1.8,15.9,3.1,24.1,3.8
				c4.1,0.3,8.3,0.5,12.5,0.5c0.1,0,0.2,0,0.3,0c0.7,0,1.4,0,2.1,0c0.7,0,1.5,0,2.2,0c0.5,0,1,0,1.5,0c0.7,0,1.3-0.1,2-0.1
				c0.4,0,0.9,0,1.4-0.1c0.7,0,1.4-0.1,2.1-0.1c0.7,0,1.5-0.1,2.2-0.2c0.2,0,0.3,0,0.5,0c1.4-0.1,2.8-0.3,4.2-0.4
				c0.8-0.1,1.5-0.2,2.3-0.3c0.5-0.1,1.1-0.1,1.6-0.2s1-0.1,1.5-0.2s1-0.1,1.5-0.2c0.8-0.1,1.5-0.2,2.3-0.4c1.5-0.3,3-0.5,4.5-0.9
				c0.8-0.1,1.5-0.3,2.3-0.5s1.5-0.3,2.3-0.5c70.3-16.6,122.7-79.7,122.7-155.1c0-85.9-68.1-156.3-153.9-159.3"/>
			<polyline class="st4" points="44.2,37.4 187,37.4 192.5,37.4 197.9,37.4 340.7,37.4 			"/>
			<polyline class="st5" points="155.8,301.4 179.9,301.4 229.1,301.4 			"/>
		</g>
	</g>
</g>
</svg>
