<?xml version="1.0" encoding="utf-8"?>
<!-- Generator: Adobe Illustrator 23.0.3, SVG Export Plug-In . SVG Version: 6.00 Build 0)  -->
<svg version="1.1" id="Livello_1" xmlns="http://www.w3.org/2000/svg" xmlns:xlink="http://www.w3.org/1999/xlink" x="0px" y="0px"
	 viewBox="0 0 362 362" style="enable-background:new 0 0 362 362;" xml:space="preserve">
<style type="text/css">
	.st0{fill:#FFFFFF;}
	.st1{fill:#003273;}
	.st2{fill:none;stroke:#000000;stroke-width:3;stroke-miterlimit:10;}
	.st3{fill:none;stroke:#000000;stroke-width:3;stroke-linecap:round;stroke-linejoin:round;}
</style>
<title>Risorsa 5</title>
<g id="Livello_1-2">
	<g id="XMLID_1_">
		<g>
			<path class="st0" d="M287.7,167.5c-0.2,0.2-0.3,0.4-0.5,0.5c-0.4,0.4-0.7,0.9-1,1.4c-1.1,1.8-1.7,3.9-1.7,6.1l0,0v5.2v35.4h-38.4
				c-3.1,0-5.7-2.5-5.7-5.7l0,0v-37.3c0-3.1,2.5-5.7,5.7-5.7L287.7,167.5L287.7,167.5z"/>
			<path class="st0" d="M129.4,210.4c0,3.1-2.5,5.7-5.7,5.7l0,0h-7.5v-48.6h7.5c3.1,0,5.7,2.5,5.7,5.7V210.4z"/>
			<path class="st0" d="M217.6,173.2v37.3c0,3.1-2.6,5.7-5.7,5.7h-54c-3.1,0-5.7-2.5-5.7-5.7l0,0v-37.3c0-3.1,2.5-5.7,5.7-5.7h54
				C215.1,167.5,217.6,170,217.6,173.2z"/>
			<path class="st0" d="M116.3,245.8v-8.4V229v-12.9h7.5l0,0c3.1,0,5.7-2.6,5.7-5.7v-37.3c0-3.1-2.5-5.7-5.7-5.7h-7.5v-9.9h183.1
				c3.2,0,5.7-2.6,5.7-5.7v-57c0-3.1-2.5-5.7-5.7-5.7H69c-3.1,0-5.7,2.6-5.7,5.7v28.5H52.7v-45h263v85.3h-19.4
				c-2.2,0-4.3,0.6-6.1,1.7c-0.5,0.3-0.9,0.6-1.4,1c-0.4,0.3-0.8,0.7-1.1,1.1h-41.6c-3.1,0-5.7,2.5-5.7,5.7v37.3l0,0
				c0,3.1,2.6,5.7,5.7,5.7h38.4V229v8.4v8.4v8.4v16H116.3v-16V245.8z M217.6,210.4v-37.3c0-3.1-2.6-5.7-5.7-5.7h-54
				c-3.1,0-5.7,2.5-5.7,5.7v37.3l0,0c0,3.1,2.5,5.7,5.7,5.7h54C215.1,216.1,217.6,213.6,217.6,210.4z"/>
			<path class="st1" d="M358.8,169.4c1.1,1.8,1.7,3.9,1.7,6.1v5.2h-44.8v-17h33l0,0c2.4,0,4.7,0.7,6.6,2c0.3,0.2,0.6,0.4,0.9,0.7
				c0.6,0.5,1.1,1,1.6,1.6C358.2,168.4,358.5,168.9,358.8,169.4z"/>
			<path class="st1" d="M358.5,296.5c-0.2,0.3-0.4,0.6-0.7,0.9C358,297.1,358.3,296.8,358.5,296.5z"/>
			<path class="st1" d="M355.3,165.7c0.3,0.2,0.6,0.4,0.9,0.7C355.9,166.2,355.6,165.9,355.3,165.7z"/>
			<path class="st0" d="M315.7,255.2V249v-6.1v-6.2v-9.5h25c3.1,0,5.7-2.5,5.7-5.7v-24.4c0-3.1-2.6-5.7-5.7-5.7h-25v-10.7h44.8v97.5
				h-76V270H310c3.1,0,5.7-2.5,5.7-5.7V255.2z"/>
			<path class="st1" d="M332.6,200.5c0.9,0.8,1,2.3,0.1,3.2L319.6,218c-0.4,0.5-1,0.7-1.6,0.7l0,0c-0.6,0-1.3-0.3-1.7-0.8l-0.6-0.7
				v-6.9l2.3,2.7l11.4-12.5C330.3,199.7,331.7,199.7,332.6,200.5z"/>
			<circle class="st0" cx="322" cy="289.4" r="7"/>
			<path class="st1" d="M322,296.4c3.9,0,7-3.1,7-7s-3.1-7-7-7s-7,3.1-7,7C315,293.2,318.1,296.4,322,296.4z M360.5,278.3v11.6l0,0
				c0,2.4-0.7,4.7-2,6.6c-0.2,0.3-0.4,0.6-0.7,0.9c-0.5,0.6-1,1.1-1.6,1.6c-0.3,0.2-0.6,0.5-0.9,0.7c-1.9,1.3-4.1,2-6.6,2h-52.4l0,0
				c-2.2,0-4.3-0.6-6.1-1.7c-0.5-0.3-0.9-0.6-1.4-1c-0.6-0.5-1.1-1-1.6-1.6c-0.2-0.3-0.5-0.6-0.7-0.9c-1.3-1.9-2-4.1-2-6.6v-11.6
				H360.5z"/>
			<path class="st0" d="M317.9,218.8c0.6,0,1.2-0.3,1.6-0.7l13.1-14.4c0.8-0.9,0.8-2.3-0.1-3.2c-0.9-0.8-2.3-0.8-3.2,0.1L318,213.2
				l-2.3-2.7v-19h25c3.1,0,5.7,2.6,5.7,5.7v24.4c0,3.1-2.6,5.7-5.7,5.7h-25v-9.9l0.6,0.7C316.6,218.5,317.3,218.8,317.9,218.8
				L317.9,218.8z"/>
			<path class="st0" d="M315.7,255.2v9.2c0,3.1-2.6,5.7-5.7,5.7h-25.5v-16h13.2v1.1L315.7,255.2L315.7,255.2z"/>
			<polygon class="st0" points="297.7,254.1 284.5,254.1 284.5,245.8 297.7,245.8 297.7,242.9 315.7,242.9 315.7,249 315.7,255.2 
				297.7,255.2 			"/>
			<polygon class="st0" points="297.7,237.4 297.7,236.7 315.7,236.7 315.7,242.9 297.7,242.9 297.7,245.8 284.5,245.8 284.5,237.4 
							"/>
			<polygon class="st0" points="303.9,229 303.9,227.2 315.7,227.2 315.7,236.7 297.7,236.7 297.7,237.4 284.5,237.4 284.5,229 			
				"/>
			<path class="st1" d="M315.7,210.5v6.9l-5-5.8c-0.8-0.9-0.7-2.4,0.2-3.2c0.9-0.8,2.4-0.7,3.2,0.2L315.7,210.5z"/>
			<rect x="305.8" y="180.8" class="st0" width="9.9" height="10.7"/>
			<path class="st1" d="M315.7,163.7v17h-9.9v-7.6c0-3.1-2.5-5.7-5.7-5.7h-12.4c0.3-0.4,0.7-0.7,1.1-1.1c0.4-0.4,0.9-0.7,1.4-1
				c1.8-1.1,3.9-1.7,6.1-1.7h19.4V163.7z"/>
			<path class="st1" d="M310,60.3c3.1,0,5.7,2.5,5.7,5.7v12.4h-263V66c0-3.1,2.5-5.7,5.7-5.7H310z M305.8,72.5
				c2.1,0,3.8-1.7,3.8-3.8s-1.7-3.8-3.8-3.8s-3.8,1.7-3.8,3.8S303.7,72.5,305.8,72.5z M295.1,72.5c2.1,0,3.8-1.7,3.8-3.8
				s-1.7-3.8-3.8-3.8c-2.1,0-3.8,1.7-3.8,3.8S293,72.5,295.1,72.5z M288.3,68.7c0-2.1-1.7-3.8-3.8-3.8c-0.9,0-1.8,0.3-2.4,0.9
				c-0.1,0.1-0.2,0.2-0.3,0.3c-0.7,0.7-1.1,1.6-1.1,2.7c0,2.1,1.7,3.8,3.8,3.8c0.8,0,1.5-0.2,2.1-0.7c0.2-0.1,0.4-0.3,0.5-0.5
				c0.3-0.3,0.5-0.5,0.6-0.9l0,0c0.1-0.2,0.2-0.4,0.3-0.7C288.2,69.4,288.3,69.1,288.3,68.7z"/>
			<circle class="st0" cx="305.8" cy="68.7" r="3.8"/>
			<path class="st0" d="M305.8,191.5v19c0,3.1-2.5,5.7-5.7,5.7h-1.9v-19c0-3.1,2.6-5.7,5.7-5.7H305.8z"/>
			<path class="st0" d="M305.8,180.8v10.7h-1.9c-3.1,0-5.7,2.6-5.7,5.7v19h-13.7v-35.4L305.8,180.8L305.8,180.8z"/>
			<path class="st1" d="M305.8,173.2v7.6h-21.3v-5.2l0,0c0-2.2,0.6-4.3,1.7-6.1c0.3-0.5,0.6-0.9,1-1.4c0.1-0.2,0.3-0.4,0.5-0.5h12.4
				C303.2,167.5,305.8,170,305.8,173.2z"/>
			<path class="st0" d="M299.3,89.2c3.2,0,5.7,2.6,5.7,5.7v57c0,3.1-2.5,5.7-5.7,5.7h-183v-17v-6.5c0-2.6-0.9-5-2.5-6.8
				c-0.2-0.3-0.4-0.5-0.7-0.8c-0.5-0.5-1-0.9-1.6-1.3c-0.4-0.3-0.9-0.6-1.3-0.8l0,0c-0.3-0.1-0.5-0.3-0.8-0.3
				c-0.1,0-0.2-0.1-0.3-0.1c-0.3-0.1-0.6-0.2-0.9-0.3c-0.2,0-0.3-0.1-0.5-0.1c-0.3-0.1-0.7-0.1-1.1-0.2c-0.4,0-0.7-0.1-1.1-0.1l0,0
				H63.3V94.9c0-3.1,2.5-5.7,5.7-5.7C69,89.2,299.3,89.2,299.3,89.2z M202.1,114.5c1.3-1.4,1.2-3.6-0.2-4.9s-3.6-1.2-4.9,0.2
				l-17.9,19.6l-6.1-7.1c-1.3-1.5-3.5-1.6-4.9-0.4c-1.5,1.3-1.6,3.5-0.4,4.9l8.7,10.1c0.6,0.8,1.6,1.2,2.6,1.2l0,0
				c1,0,1.9-0.4,2.6-1.1L202.1,114.5z"/>
			<path class="st0" d="M298.2,221.5c0,3.1,2.6,5.7,5.7,5.7v1.8h-19.4v-12.9h13.7L298.2,221.5L298.2,221.5z"/>
			<path class="st0" d="M298.2,216.1h1.9c3.1,0,5.7-2.5,5.7-5.7v-19h9.9v19l-1.6-1.9c-0.8-0.9-2.2-1-3.2-0.2c-0.9,0.8-1,2.2-0.2,3.2
				l5,5.8v9.9H304c-3.1,0-5.7-2.5-5.7-5.7L298.2,216.1L298.2,216.1z"/>
			<circle class="st0" cx="295.1" cy="68.7" r="3.8"/>
			<path class="st1" d="M288.8,299c0.4,0.4,0.9,0.7,1.4,1C289.7,299.7,289.2,299.4,288.8,299z"/>
			<path class="st0" d="M284.5,64.9c2.1,0,3.8,1.7,3.8,3.8c0,0.4-0.1,0.8-0.2,1.1c-0.1,0.2-0.2,0.4-0.3,0.7l0,0
				c-0.2,0.3-0.4,0.6-0.6,0.9c-0.2,0.2-0.4,0.3-0.5,0.5c-0.6,0.4-1.4,0.7-2.1,0.7c-2.1,0-3.8-1.7-3.8-3.8c0-1.1,0.4-2,1.1-2.7
				c0.1-0.1,0.2-0.2,0.3-0.3C282.7,65.2,283.6,64.9,284.5,64.9z"/>
			<path class="st1" d="M287.2,168c-0.4,0.4-0.7,0.9-1,1.4C286.5,168.9,286.8,168.4,287.2,168z"/>
			<path class="st1" d="M201.9,109.5c1.4,1.3,1.5,3.5,0.2,4.9L181.6,137c-0.7,0.7-1.6,1.1-2.6,1.1l0,0c-1,0-2-0.5-2.6-1.2l-8.7-10.1
				c-1.3-1.5-1.1-3.7,0.4-4.9c1.5-1.3,3.7-1.1,4.9,0.4l6.1,7.1l17.9-19.6C198.3,108.3,200.5,108.2,201.9,109.5z"/>
			<path class="st0" d="M63.3,247.3v-1.5h53v8.4v16h-58c-3.1,0-5.7-2.5-5.7-5.7v-17.1L63.3,247.3L63.3,247.3z"/>
			<polygon class="st0" points="52.7,240.9 52.7,234.9 63.3,234.9 63.3,237.4 116.3,237.4 116.3,245.8 63.3,245.8 63.3,247.3 
				52.7,247.3 			"/>
			<path class="st0" d="M116.3,216.1V229h-13.5v-1.6c3.2,0,5.9-2.6,5.9-5.9V216h7.6V216.1z"/>
			<path class="st0" d="M116.3,167.5v48.6h-7.6V210c0-3.2-2.6-5.9-5.9-5.9H86.1c-3.2,0-5.9,2.6-5.9,5.9v6.1h-7.5V210
				c0-3.2-2.6-5.9-5.9-5.9H64v-11.4h39c3.1,0,5.6-2.5,5.6-5.6v-19.7L116.3,167.5L116.3,167.5z"/>
			<path class="st0" d="M116.3,157.6v9.9h-7.6v-4.4c0-2.8-2-5.1-4.7-5.5H116.3z"/>
			<path class="st0" d="M116.3,140.6v17H104c-0.3-0.1-0.6-0.1-0.9-0.1H68.2c-2.8-0.4-4.9-2.8-4.9-5.6v-11.3L116.3,140.6L116.3,140.6
				z"/>
			<path class="st1" d="M116.3,134.1v6.5h-53V134l0.6-2.3l0,0c0-0.8-0.2-1.6-0.6-2.3v-6.1h42.3l0,0c0.4,0,0.7,0,1.1,0.1
				c0.4,0,0.7,0.1,1.1,0.2c0.2,0,0.3,0.1,0.5,0.1c0.3,0.1,0.6,0.2,0.9,0.3c0.1,0,0.2,0.1,0.3,0.1c0.3,0.1,0.6,0.2,0.8,0.3l0,0
				c0.5,0.2,0.9,0.5,1.3,0.8c0.6,0.4,1.1,0.8,1.6,1.3c0.2,0.2,0.5,0.5,0.7,0.8C115.3,129.1,116.3,131.5,116.3,134.1z"/>
			<path class="st0" d="M113.1,126.5c0.2,0.2,0.5,0.5,0.7,0.8C113.6,127,113.4,126.8,113.1,126.5z"/>
			<path class="st1" d="M110.2,124.4c0.5,0.2,0.9,0.5,1.3,0.8C111.1,124.9,110.7,124.7,110.2,124.4z"/>
			<path class="st1" d="M110.2,300.6c-0.3,0.1-0.6,0.3-1,0.4C109.6,300.9,109.9,300.8,110.2,300.6z"/>
			<path class="st1" d="M109.4,124.1c0.3,0.1,0.5,0.2,0.8,0.3C109.9,124.3,109.7,124.2,109.4,124.1z"/>
			<path class="st1" d="M108.2,123.7c0.3,0.1,0.6,0.2,0.9,0.3C108.8,123.9,108.5,123.8,108.2,123.7z"/>
			<path class="st0" d="M108.7,216.1v5.5c0,3.2-2.6,5.9-5.9,5.9H86.1c-3.2,0-5.9-2.6-5.9-5.9v-5.5H108.7z"/>
			<path class="st0" d="M108.7,167.5v19.7c0,3.1-2.5,5.6-5.6,5.6h-39v-17.4l5.4-5.9l0,0c0.5-0.6,0.7-1.3,0.5-2L108.7,167.5
				L108.7,167.5z"/>
			<path class="st0" d="M69,157.6h35c2.7,0.4,4.7,2.7,4.7,5.5v4.4H70c-0.1-0.5-0.3-0.9-0.7-1.2c-0.9-0.8-2.3-0.8-3.2,0.1L54.7,179
				l-2.1-2.4v-19h15.5C68.4,157.6,68.7,157.6,69,157.6z"/>
			<path class="st0" d="M102.8,204.1c3.2,0,5.9,2.6,5.9,5.9v6.1H80.2V210c0-3.2,2.6-5.9,5.9-5.9H102.8z"/>
			<path class="st1" d="M107.7,123.6c-0.3-0.1-0.7-0.1-1.1-0.2C107,123.5,107.4,123.5,107.7,123.6z"/>
			<path class="st0" d="M103.1,157.5c0.3,0,0.6,0,0.9,0.1H69c-0.3,0-0.6,0-0.8-0.1H103.1z"/>
			<path class="st0" d="M102.8,229h-36v-1.6c3.2,0,5.9-2.6,5.9-5.9V216h7.5v5.5c0,3.2,2.6,5.9,5.9,5.9h16.8v1.6H102.8z"/>
			<path class="st0" d="M72.7,216.1v5.5c0,3.2-2.6,5.9-5.9,5.9H52.7v-23.3h11.4v6.3c0,3.1,2.6,5.7,5.7,5.7L72.7,216.1L72.7,216.1z"
				/>
			<path class="st0" d="M66.8,204.1c3.2,0,5.9,2.6,5.9,5.9v6.1h-3c-3.1,0-5.7-2.5-5.7-5.7v-6.3H66.8z"/>
			<path class="st1" d="M69.5,169.4l-5.4,5.9v-2.2c0-3.1,2.6-5.7,5.7-5.7H70C70.2,168.1,70,168.9,69.5,169.4L69.5,169.4z"/>
			<polygon class="st0" points="66.8,229 102.8,229 116.3,229 116.3,237.4 63.3,237.4 63.3,234.9 52.7,234.9 52.7,227.4 66.8,227.4 
							"/>
			<path class="st0" d="M63.3,151.9c0,2.9,2.1,5.2,4.9,5.6H52.7v-16.9h10.6C63.3,140.6,63.3,151.9,63.3,151.9z"/>
			<path class="st1" d="M65.3,292.7c-0.3,0.6-0.6,1.1-1,1.5C64.7,293.7,65.1,293.2,65.3,292.7z"/>
			<rect x="52.7" y="192.7" class="st0" width="11.4" height="11.4"/>
			<path class="st1" d="M69.8,167.5c-3.1,0-5.7,2.5-5.7,5.7v2.2l-7.7,8.5c-0.4,0.5-1,0.7-1.7,0.7l0,0c-0.6,0-1.3-0.3-1.7-0.8
				l-0.3-0.4v-6.8l2.1,2.4l11.4-12.5c0.8-0.9,2.2-1,3.2-0.1c0.3,0.3,0.6,0.7,0.7,1.2L69.8,167.5L69.8,167.5z"/>
			<path class="st0" d="M63.9,131.8L63.9,131.8l-0.6,2.3v-4.6C63.7,130.2,63.9,130.9,63.9,131.8z"/>
			<path class="st0" d="M63.3,129.5v4.6l-2,2.1c-0.3,0.2-0.6,0.3-0.9,0.4c-0.2,0.1-0.3,0.1-0.5,0.1l-1,0.1c-0.2,0-0.4,0-0.6,0
				c-1.1-0.1-2.2-0.7-2.9-1.4c-0.9-0.9-1.5-2.1-1.5-3.5s0.6-2.6,1.5-3.5c0.3-0.3,0.7-0.6,1.1-0.9c0.1-0.1,0.3-0.1,0.4-0.2
				c0.3-0.1,0.6-0.2,0.8-0.3c0.4-0.1,0.7-0.1,1.1-0.1c0.3,0,0.7,0,1,0.1c0.2,0,0.3,0.1,0.5,0.1c0.3,0.1,0.6,0.2,0.9,0.4
				C62.1,127.9,62.8,128.6,63.3,129.5z"/>
			<path class="st1" d="M60.4,136.5c0.3-0.1,0.6-0.2,0.9-0.4C61,136.3,60.7,136.4,60.4,136.5z"/>
			<path class="st1" d="M59.9,136.6c0.2,0,0.3-0.1,0.5-0.1C60.2,136.6,60,136.6,59.9,136.6z"/>
			<path class="st0" d="M58.9,282.6c3.9,0,7.1,3.2,7.1,7.1c0,1.1-0.2,2.1-0.7,3c-0.3,0.6-0.6,1.1-1,1.5c-0.3,0.4-0.6,0.7-1,1
				c-0.5,0.4-1.1,0.8-1.8,1.1c-0.9,0.4-1.8,0.6-2.8,0.6c-3.9,0-7.1-3.2-7.1-7.1C51.8,285.8,55,282.6,58.9,282.6z"/>
			<path class="st1" d="M58.9,296.8c1,0,1.9-0.2,2.8-0.6c0.6-0.3,1.2-0.6,1.8-1.1c0.3-0.3,0.7-0.6,1-1c0.4-0.5,0.7-1,1-1.5
				c0.4-0.9,0.7-1.9,0.7-3c0-3.9-3.2-7.1-7.1-7.1s-7.1,3.2-7.1,7.1C51.8,293.6,55,296.8,58.9,296.8z M116.3,291L116.3,291
				c0,4.3-2.5,7.9-6.1,9.7c-0.3,0.1-0.6,0.3-1,0.4c-0.5,0.2-1.1,0.4-1.7,0.5c-0.3,0-0.6,0.1-0.8,0.1c-0.4,0.1-0.8,0.1-1.2,0.1H12.2
				c-5.9,0-10.7-4.8-10.7-10.7V278h114.8V291z"/>
			<path class="st1" d="M56.9,127.2c0.3-0.1,0.6-0.2,0.8-0.3C57.5,127,57.2,127.1,56.9,127.2z"/>
			<path class="st1" d="M55.4,128.2c0.3-0.3,0.7-0.6,1.1-0.9C56.1,127.6,55.7,127.9,55.4,128.2z"/>
			<path class="st0" d="M52.7,192.7v-9.3l0.3,0.4c0.4,0.5,1,0.8,1.7,0.8l0,0c0.6,0,1.2-0.3,1.7-0.7l7.7-8.5v17.4L52.7,192.7
				L52.7,192.7z"/>
			<path class="st1" d="M53.9,131.8c0,1.4,0.5,2.6,1.5,3.5c0.8,0.8,1.8,1.3,2.9,1.4c0.2,0,0.4,0,0.6,0l1-0.1c0.2,0,0.3-0.1,0.5-0.1
				c0.3-0.1,0.6-0.2,0.9-0.4l2-2.1v6.6H52.7v-17.2h10.6v6.1c-0.5-0.9-1.2-1.6-2-2.1c-0.3-0.2-0.6-0.3-0.9-0.4
				c-0.2,0-0.3-0.1-0.5-0.1c-0.3-0.1-0.7-0.1-1-0.1c-0.4,0-0.7,0-1.1,0.1c-0.3,0.1-0.6,0.2-0.8,0.3c-0.1,0.1-0.3,0.1-0.4,0.2
				c-0.4,0.2-0.8,0.5-1.1,0.9C54.5,129.1,53.9,130.4,53.9,131.8z"/>
			<path class="st0" d="M52.7,204.1v23.3h-2.6c-3.2,0-5.9-2.6-5.9-5.9V210c0-3.2,2.6-5.9,5.9-5.9H52.7z"/>
			<path class="st1" d="M52.7,176.6v6.8l-5.2-6.1c-0.8-0.9-0.7-2.4,0.2-3.1c0.9-0.8,2.3-0.7,3.2,0.2L52.7,176.6z"/>
			<path class="st1" d="M52.7,123.4v17.2H1.5v-6.5c0-5.9,4.8-10.7,10.7-10.7C12.2,123.4,52.7,123.4,52.7,123.4z"/>
			<path class="st0" d="M50.1,227.4h2.6v7.4v6v6.4v17.1c0,3.1,2.5,5.7,5.7,5.7h57.9v7.8H1.5V140.6h51.2v16.9H13.8l0,0
				c-3.1,0-5.6,2.5-5.6,5.6v24.1c0,1.2,0.3,2.2,0.9,3.1c0.2,0.3,0.4,0.6,0.7,0.8c1,1,2.4,1.6,3.9,1.6h38.8v11.4h-2.6
				c-3.2,0-5.9,2.6-5.9,5.9v11.6C44.2,224.8,46.9,227.4,50.1,227.4z M8.3,221.6c0,3.2,2.6,5.9,5.9,5.9h16.7c3.2,0,5.9-2.6,5.9-5.9
				V210c0-3.2-2.6-5.9-5.9-5.9H14.1c-3.3,0-5.9,2.6-5.9,5.9L8.3,221.6L8.3,221.6z"/>
			<path class="st0" d="M30.9,204.1c3.2,0,5.9,2.6,5.9,5.9v11.6c0,3.2-2.6,5.9-5.9,5.9H14.1c-3.3,0-5.9-2.6-5.9-5.9V210
				c0-3.2,2.6-5.9,5.9-5.9H30.9z"/>
			<path class="st0" d="M13.8,157.5h38.8v19l-1.8-2.1c-0.8-0.9-2.2-1-3.2-0.2c-0.9,0.8-1,2.2-0.2,3.1l5.2,6.1v9.3H13.8
				c-1.5,0-2.9-0.6-3.9-1.6c-0.3-0.3-0.5-0.5-0.7-0.8c-0.6-0.9-0.9-1.9-0.9-3.1v-24.1C8.3,160,10.8,157.5,13.8,157.5L13.8,157.5z"/>
		</g>
		<g>
			<path class="st2" d="M315.7,163.7V78.4V66c0-3.1-2.6-5.7-5.7-5.7H58.3c-3.1,0-5.7,2.5-5.7,5.7v12.4v45"/>
			<line class="st2" x1="116.3" y1="270.1" x2="284.5" y2="270.1"/>
			<path class="st2" d="M63.3,123.4V94.9c0-3.1,2.5-5.7,5.7-5.7h230.3c3.2,0,5.7,2.6,5.7,5.7v57c0,3.1-2.5,5.7-5.7,5.7h-183"/>
			<path class="st2" d="M116.3,167.5h7.5c3.1,0,5.7,2.5,5.7,5.7v37.3c0,3.1-2.5,5.7-5.7,5.7l0,0h-7.5"/>
			<path class="st2" d="M211.9,216.1h-54c-3.1,0-5.7-2.5-5.7-5.7l0,0v-37.3c0-3.1,2.5-5.7,5.7-5.7h54c3.1,0,5.7,2.5,5.7,5.7v37.3
				C217.6,213.6,215.1,216.1,211.9,216.1z"/>
			<path class="st2" d="M284.5,216.1h-38.4c-3.1,0-5.7-2.5-5.7-5.7l0,0v-37.3c0-3.1,2.5-5.7,5.7-5.7h41.6"/>
			<line class="st2" x1="116.3" y1="229" x2="128.7" y2="229"/>
			<line class="st2" x1="116.3" y1="237.4" x2="128.7" y2="237.4"/>
			<line class="st2" x1="116.3" y1="245.8" x2="128.7" y2="245.8"/>
			<line class="st2" x1="116.3" y1="254.1" x2="128.7" y2="254.1"/>
			<line class="st2" x1="153" y1="229" x2="218.4" y2="229"/>
			<line class="st2" x1="153" y1="237.4" x2="218.4" y2="237.4"/>
			<line class="st2" x1="153" y1="245.8" x2="218.4" y2="245.8"/>
			<line class="st2" x1="153" y1="254.1" x2="218.4" y2="254.1"/>
			<line class="st2" x1="241.2" y1="229" x2="284.5" y2="229"/>
			<line class="st2" x1="241.2" y1="237.4" x2="284.5" y2="237.4"/>
			<line class="st2" x1="241.2" y1="245.8" x2="284.5" y2="245.8"/>
			<line class="st2" x1="241.2" y1="254.1" x2="284.5" y2="254.1"/>
			<line class="st2" x1="52.7" y1="78.4" x2="315.7" y2="78.4"/>
			<path class="st2" d="M116.3,140.6v-6.5c0-2.6-0.9-5-2.5-6.8c-0.2-0.3-0.4-0.5-0.7-0.8c-0.5-0.5-1-0.9-1.6-1.3
				c-0.4-0.3-0.9-0.5-1.3-0.8l0,0c-0.3-0.1-0.5-0.3-0.8-0.3c-0.1,0-0.2-0.1-0.3-0.1c-0.3-0.1-0.6-0.2-0.9-0.3
				c-0.2,0-0.3-0.1-0.5-0.1c-0.3-0.1-0.7-0.1-1.1-0.2c-0.4,0-0.7-0.1-1.1-0.1l0,0H63.3H52.7H12.2c-5.9,0-10.7,4.8-10.7,10.7v6.5
				v137.3V291c0,5.9,4.8,10.7,10.7,10.7h93.3c0.4,0,0.8,0,1.2-0.1c0.3,0,0.6-0.1,0.8-0.1c0.6-0.1,1.1-0.3,1.7-0.5
				c0.3-0.1,0.6-0.3,1-0.4c3.6-1.7,6.1-5.4,6.1-9.6l0,0v-13.1v-7.8v-16v-8.4v-8.4V229v-12.9v-48.6v-9.9
				C116.3,157.6,116.3,140.6,116.3,140.6z"/>
			<polyline class="st2" points="1.5,140.6 52.7,140.6 63.3,140.6 116.3,140.6 			"/>
			<line class="st2" x1="1.5" y1="277.9" x2="116.3" y2="277.9"/>
			<path class="st2" d="M61.7,296.2c-0.9,0.4-1.8,0.6-2.8,0.6c-3.9,0-7.1-3.2-7.1-7.1s3.2-7.1,7.1-7.1s7.1,3.2,7.1,7.1
				c0,1.1-0.2,2.1-0.7,3c-0.3,0.6-0.6,1.1-1,1.5c-0.3,0.4-0.6,0.7-1,1C62.9,295.6,62.3,296,61.7,296.2z"/>
			<path class="st2" d="M108.7,167.5v19.7c0,3.1-2.5,5.6-5.6,5.6h-39H52.7H13.8c-1.5,0-2.9-0.6-3.9-1.6c-0.3-0.3-0.5-0.5-0.7-0.8
				c-0.6-0.9-0.9-1.9-0.9-3.1v-24.1c0-3.1,2.5-5.6,5.6-5.6l0,0h38.8h15.5h34.9c0.3,0,0.6,0,0.9,0.1c2.7,0.4,4.7,2.7,4.7,5.5V167.5z"
				/>
			<path class="st2" d="M30.9,227.4H14.1c-3.3,0-5.9-2.6-5.9-5.9V210c0-3.2,2.6-5.9,5.9-5.9h16.7c3.2,0,5.9,2.6,5.9,5.9v11.6
				C36.7,224.8,34.1,227.4,30.9,227.4z"/>
			<path class="st2" d="M66.8,227.4H52.7h-2.6c-3.2,0-5.9-2.6-5.9-5.9V210c0-3.2,2.6-5.9,5.9-5.9h2.6h11.4h2.8
				c3.2,0,5.9,2.6,5.9,5.9v6.1v5.5C72.7,224.8,70.1,227.4,66.8,227.4z"/>
			<path class="st2" d="M102.8,227.4H86.1c-3.2,0-5.9-2.6-5.9-5.9V216v-6c0-3.2,2.6-5.9,5.9-5.9h16.8c3.2,0,5.9,2.6,5.9,5.9v6.1v5.5
				C108.7,224.8,106.1,227.4,102.8,227.4z"/>
			<line class="st2" x1="8.3" y1="235.1" x2="36.7" y2="235.1"/>
			<line class="st2" x1="8.3" y1="241.1" x2="36.7" y2="241.1"/>
			<line class="st2" x1="8.3" y1="247.4" x2="36.7" y2="247.4"/>
			<polyline class="st2" points="44.2,234.9 52.7,234.9 63.3,234.9 72.7,234.9 			"/>
			<polyline class="st2" points="44.2,240.9 52.7,240.9 72.7,240.9 			"/>
			<polyline class="st2" points="44.2,247.3 52.7,247.3 63.3,247.3 72.7,247.3 			"/>
			<line class="st2" x1="80.2" y1="234.7" x2="108.7" y2="234.7"/>
			<line class="st2" x1="80.2" y1="240.7" x2="108.7" y2="240.7"/>
			<line class="st2" x1="80.2" y1="247.1" x2="108.7" y2="247.1"/>
			<path class="st2" d="M360.5,180.8v-5.2c0-2.2-0.6-4.3-1.7-6.1c-0.3-0.5-0.6-0.9-1-1.4c-0.5-0.6-1-1.1-1.6-1.6
				c-0.3-0.2-0.6-0.5-0.9-0.7c-1.9-1.3-4.1-2-6.6-2l0,0h-33h-19.4c-2.2,0-4.3,0.6-6.1,1.7c-0.5,0.3-0.9,0.6-1.4,1
				c-0.4,0.3-0.8,0.7-1.1,1.1c-0.2,0.2-0.3,0.4-0.5,0.5c-0.4,0.4-0.7,0.9-1,1.4c-1.1,1.8-1.7,3.9-1.7,6.1l0,0v5.2v35.4V229v8.4v8.4
				v8.4v16v8.2V290c0,2.5,0.8,4.7,2,6.6c0.2,0.3,0.4,0.6,0.7,0.9c0.5,0.6,1,1.1,1.6,1.6c0.4,0.4,0.9,0.7,1.4,1
				c1.8,1.1,3.9,1.7,6.1,1.7l0,0h52.4c2.4,0,4.7-0.8,6.6-2c0.3-0.2,0.6-0.4,0.9-0.7c0.6-0.5,1.1-1,1.6-1.6c0.2-0.3,0.5-0.6,0.7-0.9
				c1.3-1.9,2-4.1,2-6.6l0,0v-11.6V180.8z"/>
			<polyline class="st2" points="284.5,180.8 305.8,180.8 315.7,180.8 360.5,180.8 			"/>
			<line class="st2" x1="284.5" y1="278.3" x2="360.5" y2="278.3"/>
			<circle class="st2" cx="322" cy="289.4" r="7"/>
			<path class="st3" d="M298.2,216.1v-19c0-3.1,2.6-5.7,5.7-5.7h1.9h9.9h25c3.1,0,5.7,2.6,5.7,5.7v24.4c0,3.1-2.6,5.7-5.7,5.7h-25
				H304c-3.1,0-5.7-2.5-5.7-5.7L298.2,216.1L298.2,216.1z"/>
			<polyline class="st3" points="297.7,236.7 315.7,236.7 345.8,236.7 			"/>
			<polyline class="st3" points="297.7,242.9 315.7,242.9 345.8,242.9 			"/>
			<polyline class="st3" points="297.7,249 315.7,249 345.8,249 			"/>
			<polyline class="st3" points="297.7,255.2 315.7,255.2 345.8,255.2 			"/>
		</g>
	</g>
</g>
</svg>
