<?xml version="1.0" encoding="utf-8"?>
<!-- Generator: Adobe Illustrator 23.0.3, SVG Export Plug-In . SVG Version: 6.00 Build 0)  -->
<svg version="1.1" id="Livello_1" xmlns="http://www.w3.org/2000/svg" xmlns:xlink="http://www.w3.org/1999/xlink" x="0px" y="0px"
	 viewBox="0 0 512 512" style="enable-background:new 0 0 512 512;" xml:space="preserve">
<style type="text/css">
	.st0{fill:#FFFFFF;}
	.st1{fill:#003273;}
</style>
<g id="XMLID_1_">
	<g>
		<path class="st0" d="M406.4,279.5V387h-62.3V286.6c0-25.2-9-42.4-31.6-42.4c-17.2,0-27.5,11.6-32,22.8c-1.7,4-2.1,9.6-2.1,15.2
			V387h-62.3c0,0,0.8-170,0-187.6h62.3V226c8.3-12.8,23.1-31,56.2-31C375.7,195,406.4,221.8,406.4,279.5z"/>
		<path class="st0" d="M185.7,141.4c0,18-13.5,32.4-35.3,32.4H150c-20.9,0-34.4-14.4-34.4-32.4c0-18.4,13.9-32.4,35.3-32.4
			S185.3,123,185.7,141.4z"/>
		<rect x="119.3" y="199.4" class="st0" width="62.3" height="187.6"/>
		<path class="st1" d="M256,0c141.4,0,256,114.6,256,256S397.4,512,256,512S0,397.4,0,256S114.6,0,256,0z M406.4,387V279.5
			c0-57.6-30.8-84.4-71.8-84.4c-33.1,0-47.9,18.2-56.2,31v-26.6h-62.3c0.8,17.6,0,187.6,0,187.6h62.3V282.3c0-5.6,0.4-11.2,2.1-15.2
			c4.5-11.2,14.8-22.8,32-22.8c22.5,0,31.6,17.2,31.6,42.4V387H406.4z M181.6,387V199.4h-62.3V387H181.6z M150.4,173.8
			c21.7,0,35.3-14.4,35.3-32.4c-0.4-18.4-13.5-32.4-34.9-32.4s-35.3,14-35.3,32.4c0,18,13.5,32.4,34.4,32.4H150.4z"/>
	</g>
	<g>
	</g>
</g>
</svg>
