<?xml version="1.0" encoding="utf-8"?>
<!-- Generator: Adobe Illustrator 23.0.3, SVG Export Plug-In . SVG Version: 6.00 Build 0)  -->
<svg version="1.1" id="Livello_1" xmlns="http://www.w3.org/2000/svg" xmlns:xlink="http://www.w3.org/1999/xlink" x="0px" y="0px"
	 viewBox="0 0 502 502" style="enable-background:new 0 0 502 502;" xml:space="preserve">
<style type="text/css">
	.st0{fill:#003273;}
</style>
<title>Tavola disegno 1</title>
<path class="st0" d="M340,0H116.8L187,158.1C211,84.7,267.4,26.4,340,0z"/>
<path class="st0" d="M502,396.3V75.7c-88.5-42.1-194.4-4.5-236.5,84s-4.5,194.4,84,236.5C397.7,419.2,453.7,419.2,502,396.3z"/>
<polygon class="st0" points="35.2,0 0,0 0,79.3 "/>
<polygon class="st0" points="76,91.6 0,262.6 0,502 258.3,502 "/>
<path class="st0" d="M425.6,487c-35.2,0-70-7.3-102.2-21.7l16.3,36.7H502v-26.8C477.3,483,451.6,487,425.6,487z"/>
</svg>
