<svg xmlns="http://www.w3.org/2000/svg" viewBox="0 0 534.685 460.863"><defs><style>.cls-1{fill:#7460ff;}.cls-2{fill:#5b4ac4;}.cls-3{fill:#ffb031;}.cls-4{fill:#ff9433;}.cls-5{fill:#f73;}.cls-6{fill:#00c8b7;}.cls-7{fill:#7a4c08;}.cls-8{fill:#fff;}.cls-9{fill:#e6e8e8;}.cls-10{fill:#82ebe3;}.cls-11{fill:#d9dbdb;}.cls-12{fill:#004cab;}.cls-13{fill:#0032a6;}</style></defs><title>mail</title><g id="Livello_2" data-name="Livello 2"><g id="Livello_1-2" data-name="Livello 1"><circle class="cls-1" cx="264.897" cy="243.916" r="180.627" transform="translate(-94.888 258.752) rotate(-45)"/><path class="cls-2" d="M412.422,287.334v60.728a181.793,181.793,0,0,1-22.415,26.071v-86.8h-.035v-.207c-.1-.449-11-9.484-19.381-16.346v-3.794l10.139-2.621a19.267,19.267,0,0,1,12.449.966c1.759.758,3.587,1.483,5.414,2.069v7.932c8.38,6.862,13.691,11.345,13.794,11.794v.207Z"/><polygon class="cls-3" points="7.821 12.169 60.826 136.537 99.567 110.034 122.018 142.656 126.069 87.625 172.955 59.055 7.821 12.169"/><polygon class="cls-4" points="108.155 104.147 60.826 136.537 99.567 110.034 122.018 142.656 126.069 87.625 51.359 43.131 108.155 104.147"/><polygon class="cls-5" points="125.076 101.114 51.359 43.131 126.069 87.625 125.076 101.114"/><path class="cls-6" d="M122.967,158.167c-.417-2.423-.948-4.839-1.574-7.186l3.634-.973c.658,2.456,1.211,4.986,1.648,7.52Z"/><path class="cls-6" d="M79.077,242.643A31.1,31.1,0,0,1,63.966,237.6l2.079-3.134a27.367,27.367,0,0,0,13.282,4.421Zm15.63-3.068-1.66-3.377a37.847,37.847,0,0,0,11.255-8.864l2.8,2.514A41.547,41.547,0,0,1,94.707,239.575ZM53.5,225.586a31.035,31.035,0,0,1-3.243-13.67c0-.381.007-.763.024-1.143l.044-.816,3.752.276-.037.685c-.013.338-.02.669-.02,1a27.259,27.259,0,0,0,2.853,12Zm145.576-.859-.019-3.762c4.9-.024,9.946-.224,14.989-.6l.276,3.752C209.189,224.5,204.059,224.7,199.071,224.727Zm-15.261-.494-2.4-.185c-4.625-.384-8.816-.906-12.812-1.6l.639-3.708c3.888.673,7.971,1.18,12.485,1.557l2.352.178Zm45.666-1.71-.507-3.73c4.839-.658,9.828-1.483,14.825-2.446l.713,3.693C239.442,221.018,234.386,221.854,229.476,222.523Zm-75.833-3.8a72.794,72.794,0,0,1-12.323-5.462c-.59-.331-1.178-.676-1.76-1.027l1.944-3.223c.549.333,1.1.656,1.661.97a69.218,69.218,0,0,0,11.691,5.182Zm-37.549-1.5-3.263-1.874a84.52,84.52,0,0,0,6.206-13.416l3.539,1.275A88.3,88.3,0,0,1,116.094,217.22Zm143.284-.417-.885-3.656c4.7-1.141,9.6-2.438,14.553-3.855l1.036,3.62C269.081,214.341,264.135,215.649,259.378,216.8Zm29.238-8.332-1.161-3.579q7.173-2.324,14.275-4.854l1.257,3.546Q295.844,206.122,288.616,208.471ZM127,203.514a104,104,0,0,0-11.2-7.371l-1.258-.667,1.723-3.344c.448.229.9.468,1.34.711a108.7,108.7,0,0,1,11.613,7.628Zm-67.653-5.659-2.631-2.69c3.312-3.243,7.841-5.673,13.847-7.43l1.265,3.55C66.3,192.9,62.167,195.091,59.345,197.855Zm41.449-7.346a59.819,59.819,0,0,0-13.041-1.444l-1.525.02-.092-3.762a63.742,63.742,0,0,1,15.482,1.515Zm25.756-2.217-3.7-.658a87.3,87.3,0,0,0,1.336-14.734l3.762.019A90.828,90.828,0,0,1,126.55,188.292Z"/><path class="cls-6" d="M317.392,198.277l-1.338-3.516q3.512-1.34,7.015-2.71l1.367,3.505Q320.925,196.929,317.392,198.277Z"/><path class="cls-6" d="M435.843,289.98a3.763,3.763,0,0,1-.36-7.508,89.361,89.361,0,0,0,58.9-30.565,3.762,3.762,0,0,1,5.674,4.942,96.839,96.839,0,0,1-63.85,33.112A3.545,3.545,0,0,1,435.843,289.98Z"/><path class="cls-7" d="M389.986,287.337,258.9,364.638l-131.083-77.3a.7.7,0,0,1,.022-.213c.106-.491,7.341-6.531,18.375-15.5.107-.085.192-.17.3-.256C182.713,241.985,258.9,181.8,258.9,181.8s76.191,60.184,112.387,89.572c11.2,9.092,18.567,15.238,18.674,15.751A.731.731,0,0,1,389.986,287.337Z"/><path class="cls-8" d="M312.812,117.783H171.383a21.966,21.966,0,0,0-21.965,21.965V353.587a21.965,21.965,0,0,0,21.965,21.965H348.6a21.965,21.965,0,0,0,21.965-21.965V175.535Z"/><path class="cls-9" d="M312.812,153.57a21.965,21.965,0,0,0,21.965,21.965h35.787l-57.752-57.752Z"/><rect class="cls-10" x="182.871" y="153.93" width="64.442" height="64.442" rx="2.697"/><path class="cls-11" d="M306.331,236.28H189.253a6.3,6.3,0,0,0-6.3,6.3h0a6.3,6.3,0,0,0,6.3,6.3H306.331a6.3,6.3,0,0,0,6.3-6.3h0A6.3,6.3,0,0,0,306.331,236.28Z"/><path class="cls-11" d="M306.331,267.685H189.253a6.3,6.3,0,0,0-6.3,6.3h0a6.3,6.3,0,0,0,6.3,6.3H306.331a6.3,6.3,0,0,0,6.3-6.3h0A6.3,6.3,0,0,0,306.331,267.685Z"/><path class="cls-11" d="M253.16,298.15H189.253a6.3,6.3,0,0,0-6.3,6.3h0a6.3,6.3,0,0,0,6.3,6.3H253.16a6.3,6.3,0,0,0,6.3-6.3h0A6.3,6.3,0,0,0,253.16,298.15Z"/><path class="cls-3" d="M390,287.331V413.088a16.015,16.015,0,0,1-15.973,15.974H143.767a15.979,15.979,0,0,1-15.931-15.974V287.331L258.918,364.62Z"/><path class="cls-4" d="M385.569,424.057,301.2,339.689,258.918,364.62l-42.3-24.942-84.374,84.374a15.827,15.827,0,0,0,11.524,5.01h230.26A15.9,15.9,0,0,0,385.569,424.057Z"/><path class="cls-12" d="M416.475,114.7c-37.735,3.7-67.882,34.8-70.579,72.626a78.19,78.19,0,0,0,13.813,50.448,19.091,19.091,0,0,1,1.819,18.2l-6.223,14.982,25.437-6.595a19.179,19.179,0,0,1,12.453.965,78.588,78.588,0,0,0,39.027,6.094c37.037-3.585,67.005-33.5,70.583-70.533A78.779,78.779,0,0,0,416.475,114.7Z"/><path class="cls-8" d="M426.387,232.85l4.328-4.328s-3.437-8.1,10.974-21.763c8.578-8.132,10.5-16,9.8-22.443a22.5,22.5,0,0,0-19.725-19.724c-6.437-.7-14.311,1.222-22.442,9.8-13.661,14.412-21.763,10.974-21.763,10.974l-4.328,4.328Z"/><path class="cls-8" d="M393,206.416a11.926,11.926,0,0,0,16.67,16.669Z"/><path class="cls-8" d="M454.513,169.844l-2.695,2.695a26.039,26.039,0,0,0-8.306-8.262l2.717-2.717a5.858,5.858,0,1,1,8.284,8.284Z"/><path class="cls-13" d="M422.317,114.362a68.018,68.018,0,1,1-69.527,111.2,78.918,78.918,0,0,0,6.919,12.214,19.091,19.091,0,0,1,1.819,18.2l-6.223,14.982,25.437-6.595a19.173,19.173,0,0,1,12.453.965,78.588,78.588,0,0,0,39.027,6.094c37.037-3.585,67.005-33.5,70.583-70.533A78.747,78.747,0,0,0,422.317,114.362Z"/><path class="cls-3" d="M12.314,49.048,29.507,88.5a3.964,3.964,0,0,1-2.065,5.219l-.613.265a3.964,3.964,0,0,1-5.224-2.1L5.025,52.167a3.965,3.965,0,0,1,2.28-5.258h0A3.964,3.964,0,0,1,12.314,49.048Z"/><path class="cls-1" d="M79.667,326.7a12.641,12.641,0,1,0,12.641,12.64A12.64,12.64,0,0,0,79.667,326.7Zm0,17.757a5.117,5.117,0,1,1,5.117-5.117A5.116,5.116,0,0,1,79.667,344.455Z"/><path class="cls-1" d="M418.391,377.848a12.641,12.641,0,1,0,12.641,12.64A12.64,12.64,0,0,0,418.391,377.848Zm0,17.757a5.117,5.117,0,1,1,5.117-5.117A5.117,5.117,0,0,1,418.391,395.605Z"/><path class="cls-1" d="M521.806,181.521a9.678,9.678,0,1,0,9.679,9.679A9.678,9.678,0,0,0,521.806,181.521Zm0,13.6a3.918,3.918,0,1,1,3.918-3.917A3.917,3.917,0,0,1,521.806,195.117Z"/><path class="cls-1" d="M351.388,26.7a10.233,10.233,0,1,0,10.233,10.233A10.233,10.233,0,0,0,351.388,26.7Zm0,14.375a4.142,4.142,0,1,1,4.142-4.142A4.141,4.141,0,0,1,351.388,41.074Z"/><path class="cls-1" d="M24.062,265.127a10.76,10.76,0,1,0,10.76,10.76A10.76,10.76,0,0,0,24.062,265.127Z"/><path class="cls-1" d="M455.712,300.743a7.825,7.825,0,1,0,7.825,7.825A7.825,7.825,0,0,0,455.712,300.743Z"/><path class="cls-1" d="M196.575,29.916a11.437,11.437,0,1,0,11.436,11.437A11.438,11.438,0,0,0,196.575,29.916Z"/><path class="cls-1" d="M257.8,444.2a8.334,8.334,0,1,0,8.334,8.334A8.334,8.334,0,0,0,257.8,444.2Z"/><path class="cls-1" d="M419.122,74.029a9.782,9.782,0,1,0,9.781,9.782A9.781,9.781,0,0,0,419.122,74.029Z"/><circle class="cls-1" cx="72.648" cy="155.645" r="5.568"/><path class="cls-1" d="M525.186,132.741a9.5,9.5,0,1,0,9.5,9.5A9.5,9.5,0,0,0,525.186,132.741Z"/><circle class="cls-1" cx="18.725" cy="189.067" r="6.061"/><path class="cls-1" d="M273.521,9.6l3.806-3.807a3.393,3.393,0,0,0-4.8-4.8L268.722,4.8,264.916.99a3.393,3.393,0,0,0-4.8,4.8L263.923,9.6,260.117,13.4a3.393,3.393,0,0,0,4.8,4.8l3.806-3.806,3.807,3.806a3.393,3.393,0,0,0,4.8-4.8Z"/><path class="cls-1" d="M14.394,124.632l3.806-3.806a3.393,3.393,0,0,0-4.8-4.8L9.6,119.834l-3.807-3.807a3.393,3.393,0,0,0-4.8,4.8L4.8,124.632.99,128.439a3.393,3.393,0,1,0,4.8,4.8L9.6,129.431l3.807,3.807a3.393,3.393,0,1,0,4.8-4.8Z"/><path class="cls-1" d="M463.371,357.081l3.224-3.224a2.874,2.874,0,0,0-4.064-4.065l-3.224,3.224-3.224-3.224a2.874,2.874,0,0,0-4.064,4.065l3.223,3.224-3.223,3.223a2.874,2.874,0,0,0,4.064,4.065l3.224-3.224,3.224,3.224A2.874,2.874,0,0,0,466.6,360.3Z"/></g></g></svg>