<?xml version="1.0" encoding="utf-8"?>
<!-- Generator: Adobe Illustrator 23.0.3, SVG Export Plug-In . SVG Version: 6.00 Build 0)  -->
<svg version="1.1" id="Capa_1" xmlns="http://www.w3.org/2000/svg" xmlns:xlink="http://www.w3.org/1999/xlink" x="0px" y="0px"
	 viewBox="0 0 512 512" style="enable-background:new 0 0 512 512;" xml:space="preserve">
<style type="text/css">
	.st0{fill:#35DFFF;}
	.st1{fill:#00004F;}
</style>
<g>
	<g id="XMLID_1_">
		<g>
			<path class="st0" d="M380.9,241.1l-13,19.4c-6.4-4.8-20.6-13.9-36.5-13.9c-11.7,0-19.2,5-19.2,14.2c0,11.5,20.1,14.7,24.7,15.8
				c8.6,2.2,48.7,8.4,48.7,37.9c0,34.9-35.2,39.8-50.9,39.8c-29,0-49.7-13.2-56.9-19.4l12-20.2c7.7,5.4,25.4,16.6,44.2,16.6
				c12.2,0,20.6-5.1,20.6-13.9c0-10.8-17.8-14.3-27.6-17c-8.2-2.2-44.9-7.4-44.9-35c0-26.6,23.1-41.5,49.4-41.5
				C359.3,223.8,374,235,380.9,241.1z"/>
			<path class="st0" d="M213.1,181.6c33.1,0,54.2,30.4,54.2,56.6c0,30.9-23.5,56.6-53,56.6H174V352h-33.1V181.6H213.1z M233.7,238.2
				c0-14.4-8.7-27.6-22.8-27.6h-37v55.2h38.4C224,265.8,233.7,255,233.7,238.2z"/>
			<path class="st0" d="M482,30v452H30V30H482z M452,452V60H60v392H452z"/>
			<path class="st1" d="M512,0v512H0V0H512z M482,482V30H30v452H482z"/>
			<path class="st1" d="M452,60v392H60V60H452z M367.9,260.6l13-19.4c-6.9-6.1-21.6-17.3-49.2-17.3c-26.3,0-49.4,14.9-49.4,41.5
				c0,27.6,36.7,32.8,44.9,35c9.8,2.7,27.6,6.2,27.6,17c0,8.8-8.5,13.9-20.6,13.9c-18.8,0-36.5-11.1-44.2-16.6l-12,20.2
				c7.2,6.2,27.9,19.4,56.9,19.4c15.7,0,50.9-4.9,50.9-39.8c0-29.6-40.1-35.7-48.7-37.9c-4.6-1.1-24.7-4.4-24.7-15.8
				c0-9.2,7.5-14.2,19.2-14.2C347.3,246.6,361.5,255.8,367.9,260.6z M267.3,238.2c0-26.2-21.2-56.6-54.2-56.6h-72.2V352H174v-57.1
				h40.3C243.8,294.9,267.3,269.2,267.3,238.2z"/>
			<path class="st1" d="M210.9,210.6c14.1,0,22.8,13.2,22.8,27.6c0,16.8-9.7,27.6-21.4,27.6H174v-55.2H210.9z"/>
		</g>
		<g>
		</g>
	</g>
</g>
</svg>
