<?xml version="1.0" encoding="utf-8"?>
<!-- Generator: Adobe Illustrator 23.0.3, SVG Export Plug-In . SVG Version: 6.00 Build 0)  -->
<svg version="1.1" id="Livello_1" xmlns="http://www.w3.org/2000/svg" xmlns:xlink="http://www.w3.org/1999/xlink" x="0px" y="0px"
	 viewBox="0 0 512 512" style="enable-background:new 0 0 512 512;" xml:space="preserve">
<style type="text/css">
	.st0{fill:#F9CE00;}
	.st1{fill:#B7DBF6;}
	.st2{fill:#97CBEF;}
	.st3{fill:#122894;}
	.st4{fill:#012481;}
	.st5{fill:#E8F3FC;}
	.st6{fill:#406BCC;}
	.st7{fill:#284CB2;}
	.st8{fill:#1D3BA8;}
	.st9{fill:#55F3FF;}
	.st10{fill:#05B8E2;}
	.st11{fill:#FCE275;}
	.st12{fill:#5488E2;}
</style>
<path class="st0" d="M245,11c-19.6,0-38.7,2.3-56.9,6.7L45.6,398.4c26.6,37.3,63.5,66.7,106.4,84.4h0L303.1,494
	C410.4,468,490,371.3,490,256C490,120.7,380.3,11,245,11z"/>
<path class="st1" d="M245,501c20.1,0,39.6-2.4,58.3-7c-0.3-0.4-0.5-0.8-0.9-1.2c-8.7-10.2-14.1-15.9-15.3-29.9l-4.1-64.8
	c-14.5,0-105.4,0-120,0l-4.1,64.8c-0.8,8.8-3.2,14.3-7,19.7C180.6,494.5,212,501,245,501z"/>
<path class="st2" d="M185.1,436.3h75c11.4,0,21.3,6.4,26.3,15.8l-3.4-54c-14.5,0-105.4,0-120,0l-3.3,52.3
	C165,442,174.4,436.3,185.1,436.3z"/>
<path class="st3" d="M472.3,17.2h-282c-24.9,5.7-48.3,15.2-69.7,27.8L6.4,311.6c2.3,9.8,5.1,19.3,8.5,28.6H492V36.9
	C492,26.1,483.1,17.2,472.3,17.2z"/>
<path class="st4" d="M62.5,180.5L6.4,311.6c2.3,9.8,5.1,19.3,8.5,28.6h47.6V180.5z"/>
<path class="st5" d="M46.9,400.2h425.4c10.8,0,19.7-8.9,19.7-19.7v-40.3H14.9C22.8,361.8,33.6,381.9,46.9,400.2z"/>
<path class="st1" d="M61.5,380.4v-40.3H14.9c7.9,21.6,18.7,41.8,32,60h34.3C70.4,400.2,61.5,391.3,61.5,380.4z"/>
<path class="st5" d="M6.7,313.1h456.8c0.9,0,1.5-0.7,1.5-1.5V84.9L3.1,295C4.1,301.1,5.3,307.2,6.7,313.1z"/>
<path class="st1" d="M62.5,268L3.1,295c1,6.1,2.2,12.2,3.6,18.1h55.8V268z"/>
<path class="st1" d="M236.5,370.2c0,7.5-6,13.5-13.5,13.5s-13.5-6-13.5-13.5s6-13.5,13.5-13.5S236.5,362.7,236.5,370.2z"/>
<path class="st6" d="M0,256c0,13.6,1.1,26.9,3.2,39.8L465,85.8V70.9H84.5C32.7,115.8,0,182.1,0,256z"/>
<path class="st7" d="M62.5,92.6C23.6,135.9,0,193.2,0,256c0,13.6,1.1,26.9,3.2,39.8l59.3-27V92.6z"/>
<path class="st8" d="M463.5,44.2H121.9c-14.2,8.3-27.5,17.9-39.7,28.7H465V45.7C465,44.9,464.3,44.2,463.5,44.2z"/>
<path class="st9" d="M374.4,202.8H71.6c-5.6,0-10.1,4.5-10.1,10.1v100.2h323V212.9C384.5,207.3,380,202.8,374.4,202.8z"/>
<path class="st10" d="M116.4,202.8H71.6c-5.6,0-10.1,4.5-10.1,10.1v100.2h44.8V212.9C106.3,207.3,110.8,202.8,116.4,202.8z"/>
<path class="st5" d="M485.2,492.5H378.7c-10,0-18.2-8.2-18.2-18.2V239.1c0-10,8.2-18.2,18.2-18.2h106.5c10,0,18.2,8.2,18.2,18.2
	v235.1C503.5,484.3,495.3,492.5,485.2,492.5z"/>
<path class="st1" d="M388.4,474.2V239.1c0-10,8.2-18.2,18.2-18.2h-27.9c-10,0-18.2,8.2-18.2,18.2v235.1c0,10,8.2,18.2,18.2,18.2
	h27.9C396.6,492.5,388.4,484.3,388.4,474.2z"/>
<path class="st6" d="M503.5,365.7V239.1c0-10-8.2-18.2-18.2-18.2H378.7c-10,0-18.2,8.2-18.2,18.2v191.6L503.5,365.7z"/>
<path class="st7" d="M360.5,239.1v191.6l27.9-12.7V239.1c0-10,8.2-18.2,18.2-18.2h-27.9C368.7,220.9,360.5,229.1,360.5,239.1z"/>
<path class="st8" d="M485.2,212.4H378.7c-14.8,0-26.8,12-26.8,26.8v235.1c0,14.8,12,26.8,26.8,26.8h106.5c14.8,0,26.8-12,26.8-26.8
	V239.1C512,224.4,500,212.4,485.2,212.4z M494.9,474.2c0,5.3-4.3,9.7-9.7,9.7H378.7c-5.3,0-9.7-4.3-9.7-9.7V239.1
	c0-5.3,4.3-9.7,9.7-9.7h14.6c2.1,0,3.8,1.3,4.7,3.1c1.8,4,5.8,6.8,10.4,6.8h46.5c4.6,0,8.7-2.8,10.4-6.8c0.8-1.9,2.6-3.1,4.7-3.1
	h15.3c5.3,0,9.7,4.3,9.7,9.7L494.9,474.2L494.9,474.2z"/>
<path class="st11" d="M103.8,91.1H75c-7.4,0-13.5,6.1-13.5,13.5s6.1,13.5,13.5,13.5h28.8c7.4,0,13.5-6.1,13.5-13.5
	S111.2,91.1,103.8,91.1z"/>
<path class="st0" d="M89.4,104.6c0-7.4,6.1-13.5,13.5-13.5H75c-7.4,0-13.5,6.1-13.5,13.5s6.1,13.5,13.5,13.5h27.9
	C95.5,118.1,89.4,112,89.4,104.6z"/>
<path class="st12" d="M145.8,147.8H68.4c-4.1,0-7.5-3.4-7.5-7.5c0-4.1,3.4-7.5,7.5-7.5h77.3c4.1,0,7.5,3.4,7.5,7.5
	C153.3,144.4,149.9,147.8,145.8,147.8z"/>
<path class="st12" d="M145.8,177.4H68.4c-4.1,0-7.5-3.4-7.5-7.5c0-4.1,3.4-7.5,7.5-7.5h77.3c4.1,0,7.5,3.4,7.5,7.5
	C153.3,174.1,149.9,177.4,145.8,177.4z"/>
<path class="st11" d="M446.4,255.3h-28.8c-7.4,0-13.5,6.1-13.5,13.5s6.1,13.5,13.5,13.5h28.8c7.4,0,13.5-6.1,13.5-13.5
	S453.8,255.3,446.4,255.3z"/>
<path class="st0" d="M429.3,268.8c0-7.4,6.1-13.5,13.5-13.5h-25.3c-7.4,0-13.5,6.1-13.5,13.5s6.1,13.5,13.5,13.5h25.3
	C435.4,282.3,429.3,276.3,429.3,268.8z"/>
<path class="st12" d="M470.6,312h-77.3c-4.1,0-7.5-3.4-7.5-7.5c0-4.1,3.4-7.5,7.5-7.5h77.3c4.1,0,7.5,3.4,7.5,7.5
	C478.1,308.7,474.8,312,470.6,312z"/>
<path class="st12" d="M470.6,341.7h-77.3c-4.1,0-7.5-3.4-7.5-7.5s3.4-7.5,7.5-7.5h77.3c4.1,0,7.5,3.4,7.5,7.5
	S474.8,341.7,470.6,341.7z"/>
<path class="st7" d="M328,290.5c0-4.1-3.4-7.5-7.5-7.5h-31.2c-4.1,0-7.5,3.4-7.5,7.5c0,4.1,3.4,7.5,7.5,7.5h31.2
	C324.7,298,328,294.6,328,290.5z"/>
<path class="st9" d="M469.3,356.7h-72.7c-4.6,0-8.3,3.7-8.3,8.3v91.4c0,4.6,3.7,8.3,8.3,8.3h72.7c4.6,0,8.3-3.7,8.3-8.3v-91.4
	C477.6,360.4,473.9,356.7,469.3,356.7z"/>
<path class="st10" d="M410.4,456.3v-91.4c0-4.6,3.7-8.3,8.3-8.3h-22.1c-4.6,0-8.3,3.7-8.3,8.3v91.4c0,4.6,3.7,8.3,8.3,8.3h22.1
	C414.1,464.6,410.4,460.9,410.4,456.3z"/>
<path class="st7" d="M455.1,442.1c0-4.1-3.4-7.5-7.5-7.5h-31.2c-4.1,0-7.5,3.4-7.5,7.5c0,4.1,3.4,7.5,7.5,7.5h31.2
	C451.7,449.6,455.1,446.2,455.1,442.1z"/>
<path class="st4" d="M387,492.5c0-3.5,1.6-6.6,4.2-8.5h-12.5c-5.3,0-9.7-4.3-9.7-9.7V239.1c0-5.3,4.3-9.7,9.7-9.7h12.4
	c-2-2-3.2-4.7-3.2-7.7c0-4,2.2-7.5,5.4-9.4h-14.6c-14.8,0-26.8,12-26.8,26.8v235.1c0,14.8,12,26.8,26.8,26.8h12.5
	C388.7,499,387,495.9,387,492.5z"/>
</svg>
