<?xml version="1.0" encoding="utf-8"?>
<!-- Generator: Adobe Illustrator 23.0.3, SVG Export Plug-In . SVG Version: 6.00 Build 0)  -->
<svg version="1.1" id="Capa_1" xmlns="http://www.w3.org/2000/svg" xmlns:xlink="http://www.w3.org/1999/xlink" x="0px" y="0px"
	 viewBox="0 0 512 512" style="enable-background:new 0 0 512 512;" xml:space="preserve">
<style type="text/css">
	.st0{fill:#FFFFFF;}
	.st1{fill:#562F44;}
	.st2{fill:#E749A0;}
</style>
<g>
	<g id="XMLID_1_">
		<g>
			<path class="st0" d="M404.2,324.6V352c-2.8,0.6-5.3,1-7.6,1.3c-2.3,0.3-4.3,0.4-6.1,0.4c-23.2,0-21.1-23.5-21.1-23.5
				c-4.7,8-18.5,24.2-43.7,24.2c-37,0-59.8-30.8-59.8-65.3c0-39.1,26.4-65,56.2-65c25.3,0,38.3,17,42.5,24.2v-71.5h32.2V315
				C396.8,318.4,401.5,324.4,404.2,324.6z M364.6,305.9v-30c-1.3-3.5-12.8-24.5-32.4-24.5c-21.9,0-32.9,21.7-32.9,38.4
				c0,18.3,13.5,37.2,34.8,37.2C354.3,327,363.5,308.9,364.6,305.9z"/>
			<polygon class="st0" points="266.9,181.6 206.2,268 265,352 229.2,352 188.9,291 148.3,352 112.3,352 171.1,268 110.4,181.6 
				146.4,181.6 188.9,245 231.1,181.6 			"/>
			<path class="st1" d="M512,0v512H0V0H512z M482,482V30H30v452H482z"/>
			<path class="st2" d="M482,30v452H30V30H482z M452,452V60H60v392H452z"/>
			<path class="st1" d="M452,60v392H60V60H452z M404.2,352v-27.4c-2.7-0.2-7.4-6.2-7.4-9.6V176.8h-32.2v71.5
				c-4.2-7.2-17.2-24.2-42.5-24.2c-29.8,0-56.2,25.9-56.2,65c0,34.5,22.8,65.3,59.8,65.3c25.2,0,39-16.2,43.7-24.2
				c0,0-2.1,23.5,21.1,23.5c1.8,0,3.8-0.1,6.1-0.4C398.9,353,401.4,352.6,404.2,352z M206.2,268l60.7-86.4h-35.8L188.9,245
				l-42.5-63.4h-36l60.7,86.4l-58.8,84h36l40.6-61l40.3,61H265L206.2,268z"/>
			<path class="st1" d="M364.6,275.9v30c-1.1,3-10.3,21.1-30.5,21.1c-21.3,0-34.8-18.9-34.8-37.2c0-16.7,11-38.4,32.9-38.4
				C351.8,251.4,363.3,272.4,364.6,275.9z"/>
		</g>
		<g>
		</g>
	</g>
</g>
</svg>
